<svg width="375" height="408" viewBox="0 0 375 408" fill="none" xmlns="http://www.w3.org/2000/svg">
<path opacity="0.42" d="M367.481 257.21C355.645 243.719 341.49 226.121 333.061 214.415C328.638 208.273 324.299 201.524 322.528 193.801C319.731 181.605 323.596 166.795 333.411 152.101C333.839 151.459 334.28 150.824 334.724 150.188C336.704 147.585 338.676 144.979 340.595 142.334C342.827 139.51 345.112 136.744 347.361 134.026C352.06 128.351 356.915 122.482 361.126 116.248C368.353 105.549 376.24 89.3715 372.773 73.0501C370.157 60.7208 360.89 49.7272 347.987 43.6405C337.532 38.7099 324.895 36.7154 309.356 37.5361C294.922 38.301 274.203 41.2341 257.479 50.8657C249.488 55.4668 241.57 60.4944 233.909 65.3543C218.121 75.3743 201.795 85.7355 184.307 92.6841C171.475 97.7853 144.34 112.968 126.165 131.99C126.165 131.99 89.7865 166.377 82.8554 186.729C75.0154 209.761 53.3335 226.077 37.1217 244.784C20.9099 263.491 1.39925 289.797 12.5112 311.908C32.9611 352.603 66.4652 355.012 80.0278 354.591L332.987 357.183C340.167 356.61 350.007 355.309 360.035 352.394C376.129 347.713 387.17 340.494 392.853 330.936C403.399 313.223 394.859 288.417 367.481 257.21ZM157.007 114.724C150.604 117.469 142.721 121.888 134.467 127.542C151.177 112.353 173.518 99.5827 185.526 94.8081C196.001 90.6454 206.023 85.3031 215.744 79.5488C196.715 92.34 178.073 105.69 157.007 114.724ZM287.459 52.7779C271.638 54.0753 254.079 57.5731 239.54 64.7424C245.943 60.6885 252.501 56.5934 259.088 52.8013C275.28 43.4756 295.461 40.6309 309.538 39.8866C324.514 39.0953 336.636 40.9928 346.6 45.688C358.779 51.4305 367.525 61.8123 369.999 73.4591C373.318 89.095 365.67 104.731 358.668 115.095C356.46 118.363 354.06 121.538 351.599 124.647C357.369 112.839 360.429 99.5592 356.834 87.1034C352.956 73.6679 341.675 63.1891 328.752 57.8114C315.826 52.4337 301.409 51.6335 287.459 52.7779ZM390.328 329.895C380.047 347.178 352.72 352.691 336.448 354.447C339.053 354.041 341.703 353.468 344.429 352.673C359.486 348.284 369.841 342.924 375.712 328.397C381.942 312.973 363.802 290.93 355.427 276.55C347.055 262.173 335.021 250.347 324.42 237.517C318.994 230.951 313.83 223.914 311.339 215.777C306.717 200.694 312.016 184.223 320.172 170.717C320.943 169.443 321.744 168.19 322.559 166.945C318.866 176.636 317.863 185.991 319.755 194.24C321.609 202.321 326.08 209.293 330.638 215.624C339.107 227.386 353.319 245.057 365.199 258.599C391.906 289.041 400.363 313.026 390.328 329.895Z" fill="#F5EAFA"/>
<path d="M228.002 365.103C307.887 365.103 372.646 358.46 372.646 350.265C372.646 342.07 307.887 335.426 228.002 335.426C148.117 335.426 83.3582 342.07 83.3582 350.265C83.3582 358.46 148.117 365.103 228.002 365.103Z" fill="#534E95"/>
<path d="M188.69 131.747C191.532 131.712 194.975 132.79 199.093 135.555C203.812 138.719 206.595 142.802 207.947 147.477C208.08 147.236 208.21 146.996 208.33 146.754C211.277 140.693 208.277 105.33 195.504 92.0052C182.731 78.6807 177.514 97.8994 185.023 113.836C187.879 119.903 188.73 126.232 188.69 131.747Z" fill="#D5CCFF"/>
<path d="M207.846 148.325L207.623 147.549C206.217 142.688 203.28 138.729 198.889 135.785C195.13 133.264 191.697 132.004 188.694 132.038L188.354 132.041L188.357 131.743C188.403 125.169 187.18 119.183 184.714 113.947C179.74 103.388 180.126 90.6872 185.509 87.8118C187.446 86.7786 190.796 86.6322 195.763 91.8133C203.296 99.6689 206.756 114.131 208.147 122.054C210.014 132.695 210.233 143.59 208.643 146.863C208.537 147.085 208.41 147.319 208.255 147.601L207.846 148.325ZM189.027 131.452C192.101 131.51 195.555 132.808 199.301 135.318C203.574 138.183 206.506 141.981 208.032 146.614C210.816 140.777 208.031 105.529 195.244 92.1935C191.553 88.3455 188.306 87.0018 185.853 88.312C181.333 90.7246 180.093 102.595 185.332 113.719C187.795 118.949 189.038 124.914 189.027 131.452Z" fill="#96AAFF"/>
<path d="M168.792 363.494C181.765 364.875 169.734 352.37 182.254 342.06C195.692 330.999 226.865 328.89 235.95 313.86C241.255 305.088 238.167 292.468 238.16 292.445C225.357 268.821 205.487 237.585 184.375 224.97C175.238 219.51 230.493 157.057 198.872 135.851C181.512 124.209 176.174 142.439 177.122 147.985C178.798 157.781 140.84 229.795 152.097 256.307C161.86 279.304 177.834 286.376 201.212 328.184C179.085 320.64 145.697 310.882 115.743 308.675C104.677 307.86 119.359 182.213 84.9278 164.641C66.0247 154.992 57.1353 182.655 58.8663 188.046C61.9241 197.574 50.4445 328.984 75.6758 346.613C95.0203 360.126 111.626 358.781 163.213 363.439C163.213 363.439 166.379 363.737 171.292 363.893C169.62 363.657 168.792 363.494 168.792 363.494Z" fill="#B1C7FF"/>
<path opacity="0.84" d="M199.413 135.614C204.383 138.947 207.202 143.296 208.468 148.286L208.646 146.814C208.646 146.814 211.65 137.068 201.34 130.814C193.766 126.218 188.693 126.799 188.693 126.799L188.872 131.811C191.746 131.74 195.229 132.808 199.413 135.614Z" fill="#AFB6FF"/>
<path d="M78.0895 162.846C76.408 160.606 74.2536 158.235 71.7764 156.649C65.747 152.786 25.6823 147.42 7.76871 155.298C-10.1448 163.177 9.96597 171.912 29.5149 169.098C42.9743 167.16 55.7998 170.992 62.4849 173.567C65.71 167.635 70.9259 162.384 78.0895 162.846Z" fill="#D5CCFF"/>
<path d="M62.6444 173.946L62.344 173.83C55.8741 171.339 43.0126 167.446 29.5632 169.382C16.6133 171.247 2.57465 168.075 0.681191 162.854C-0.000801587 160.976 0.649549 158.092 7.61596 155.029C18.1817 150.383 35.1043 150.681 44.2563 151.272C56.5446 152.064 68.7224 154.321 71.9749 156.406C74.1352 157.791 76.2871 159.9 78.3682 162.68L78.7427 163.179L78.0573 163.135C70.0396 162.62 65.0464 169.523 62.7835 173.685L62.6444 173.946ZM35.0834 168.309C46.3669 167.915 56.6274 171.015 62.3213 173.18C64.657 168.981 69.584 162.4 77.4365 162.527C75.5141 160.045 73.5414 158.15 71.574 156.888C65.8375 153.215 25.8709 147.666 7.91411 155.561C2.7391 157.837 0.460504 160.298 1.32164 162.676C2.91303 167.059 15.8152 170.771 29.4589 168.805C31.3523 168.53 33.2297 168.373 35.0834 168.309Z" fill="#90A7FF"/>
<path opacity="0.84" d="M78.2531 162.889C76.8118 160.779 72.9075 157.003 65.4688 162.361C58.2864 167.533 57.5078 171.953 57.5078 171.953L62.485 173.56C65.7359 167.597 71.0085 162.33 78.2531 162.889Z" fill="#AFB6FF"/>
<path d="M237.83 292.691C237.83 292.691 240.929 305.326 235.621 314.107C226.533 329.137 195.359 331.243 181.925 342.307C169.405 352.614 181.435 365.122 168.463 363.741C168.463 363.741 187.031 367.361 226.93 365.968C267.037 365.026 302.027 363.028 302.027 363.028C302.027 363.028 260.572 320.728 255.08 296.287C251.402 279.91 237.83 292.691 237.83 292.691Z" fill="#A2A1FF"/>
<path d="M168.451 363.429C181.423 364.811 169.393 352.305 181.913 341.995C195.35 330.935 226.524 328.825 235.608 313.795C240.917 305.015 237.818 292.38 237.818 292.38C237.818 292.38 237.86 292.34 237.942 292.267C237.356 291.604 237.018 290.209 236.216 289.448C236.143 292.076 234.175 308.041 220.79 318.496C216.771 321.636 203.524 328.898 200.758 327.914C200.827 327.962 200.922 328.055 201.034 328.187C200.922 328.076 200.828 327.982 200.758 327.914C200.685 330.542 184.934 326.768 169.486 348.908C166.679 352.93 160.934 363.945 158.168 362.961C158.737 363.339 169.354 363.257 170.315 363.865C170.642 363.877 170.966 363.88 171.289 363.881C169.387 363.612 168.451 363.429 168.451 363.429Z" fill="#A8B1FF"/>
<path d="M184.956 280.351C183.863 279.256 158.184 253.433 157.733 243.234L158.406 243.205C158.846 253.198 185.199 279.695 185.464 279.959L184.956 280.351Z" fill="#A2A2FF"/>
<path d="M171.098 363.958C170.425 363.982 169.67 363.946 168.821 363.858L168.909 363.275C171.302 363.53 172.928 363.309 173.883 362.592C175.246 361.573 175.33 359.548 175.439 356.986C175.613 352.797 175.854 347.06 182.097 341.918C187.83 337.196 196.549 334.169 205.781 330.965C217.954 326.737 230.547 322.367 235.728 313.797C240.915 305.215 237.935 292.708 237.907 292.583L238.567 292.454C238.598 292.582 241.629 305.296 236.324 314.071C231.025 322.836 218.316 327.248 206.026 331.516C196.857 334.7 188.198 337.704 182.557 342.349C176.516 347.323 176.28 352.921 176.11 357.007C175.996 359.716 175.909 361.853 174.317 363.042C173.558 363.607 172.511 363.909 171.098 363.958Z" fill="#AB89CE"/>
<path d="M101.334 348.876C101.256 348.861 93.5633 347.346 86.3845 342.015C79.759 337.095 72.2205 327.83 73.9315 311.627L74.6035 311.674C72.9204 327.614 80.3083 336.717 86.8027 341.547C93.8538 346.791 101.407 348.285 101.482 348.3L101.334 348.876Z" fill="#A2A2FF"/>
<path d="M90.254 197.956L89.5812 197.979C89.1882 186.73 86.1182 182.348 83.6136 180.652C81.5126 179.23 79.682 179.568 79.605 179.582L79.4602 179.007C79.5472 178.99 81.6518 178.586 84.0042 180.167C86.6325 181.933 89.8521 186.451 90.254 197.956Z" fill="#A2A2FF"/>
<path d="M169.646 97.6029C166.333 90.9069 167.553 83.773 173.166 76.9686C177.386 71.8524 182.664 68.6804 182.717 68.6491L183.091 69.1335C183.038 69.1648 177.849 72.2865 173.697 77.3209C168.161 84.0372 167.006 90.7803 170.26 97.3635L169.646 97.6029Z" fill="#B1C7FF"/>
<path d="M156.559 89.9792C150.829 78.3928 165.76 69.3262 165.912 69.2384L166.286 69.7228C166.141 69.8103 151.668 78.6049 157.177 89.7427L156.559 89.9792Z" fill="#B1C7FF"/>
<path d="M-0.6843 234.647L-1.35024 234.576C2.82329 206.33 13.1371 194.09 13.2406 193.969L13.7784 194.321C13.6749 194.442 3.46501 206.576 -0.6843 234.647Z" fill="#B1C7FF"/>
<path d="M36.5661 336.522C36.5661 336.522 7.38415 346.348 13.1909 352.74C19.001 359.136 56.8275 407.167 63.2974 407.891C69.7673 408.615 78.3175 405.938 72.0462 393.35C65.7749 380.758 59.6045 366.146 61.1564 357.903C61.1564 357.9 42.8677 356.256 36.5661 336.522Z" fill="#A2A1FF"/>
<path d="M16.5537 345.777C13.1639 348.154 11.2788 350.634 13.1942 352.74C19.0043 359.136 56.8308 407.168 63.3007 407.891C66.1351 408.209 69.3666 407.874 71.5782 406.338L16.5537 345.777Z" fill="#534E95"/>
<path d="M52.1125 362.561L52.0027 363.142L61.0661 364.452L61.176 363.871L52.1125 362.561Z" fill="#534E95"/>
<path d="M54.8259 368.474L54.7048 369.053L62.3312 370.27L62.4523 369.691L54.8259 368.474Z" fill="#534E95"/>
<path d="M55.7603 374.357L55.5876 374.926L64.588 377.012L64.7607 376.443L55.7603 374.357Z" fill="#534E95"/>
<path d="M109.58 76.5204C114.051 71.1603 116.363 64.6617 117.72 58.2043C118.353 55.1977 118.784 52.1619 119.151 49.1229C119.312 47.7962 119.457 46.4664 119.615 45.1396C119.686 44.5395 119.76 43.9423 119.837 43.3451C119.871 43.0862 119.905 42.8302 119.942 42.5743C119.962 42.439 119.982 42.3037 120.002 42.1683C120.012 42.1007 120.022 42.0359 120.033 41.9682C120.006 42.1359 120.043 41.9006 120.049 41.8683C120.208 40.8622 120.393 39.853 120.696 38.8734C120.756 38.6793 120.82 38.4881 120.894 38.2998C120.931 38.2057 120.968 38.1116 121.009 38.0174C121.026 37.9792 121.042 37.9409 121.059 37.9027C121.14 37.7144 120.999 38.0085 121.063 37.8938C121.143 37.7496 121.217 37.6055 121.308 37.4643C121.352 37.3966 121.399 37.329 121.45 37.2643C121.47 37.2378 121.493 37.2113 121.514 37.1849C121.621 37.0348 121.406 37.3026 121.49 37.2084C121.776 36.8995 121.837 36.47 121.49 36.167C121.194 35.9081 120.588 35.8552 120.299 36.167C119.191 37.3673 118.868 39.0294 118.592 40.5121C118.151 42.8803 117.919 45.2749 117.642 47.6608C116.929 53.8122 116.027 59.9783 113.792 65.8826C112.459 69.401 110.634 72.7812 108.13 75.7819C107.86 76.1026 108.066 76.6028 108.433 76.7881C108.853 77.0029 109.311 76.844 109.58 76.5204Z" fill="#6A62C6"/>
<path d="M118.459 53.7414C118.029 52.3911 117.301 51.0879 116.557 49.8523C115.756 48.5226 114.794 47.0752 113.312 46.2485C112.397 45.7367 111.552 47.0104 112.464 47.5194C113.174 47.9165 113.666 48.5314 114.127 49.1374C114.507 49.6346 114.841 50.1523 115.157 50.6819C115.814 51.7821 116.453 52.9324 116.837 54.1327C117.126 55.0417 118.752 54.6563 118.459 53.7414Z" fill="#6A62C6"/>
<path d="M118.084 57.0505C118.155 56.9269 118.229 56.8064 118.316 56.6917C118.353 56.6387 118.393 56.5886 118.437 56.5357C118.457 56.5121 118.538 56.418 118.447 56.521C118.357 56.624 118.441 56.5298 118.461 56.5062C118.562 56.4003 118.666 56.3004 118.781 56.2033C118.831 56.1591 118.885 56.1179 118.939 56.0767C118.973 56.0532 119.003 56.0267 119.037 56.0032C119.063 55.9855 119.168 55.912 119.053 55.9914C118.932 56.0738 119.05 55.9944 119.07 55.9826C119.1 55.965 119.127 55.9473 119.158 55.9296C119.222 55.8914 119.289 55.8532 119.356 55.8179C119.484 55.7502 119.615 55.6854 119.75 55.6296C119.784 55.6148 119.814 55.6031 119.848 55.5913C119.996 55.5296 119.652 55.659 119.804 55.609C119.871 55.5884 119.939 55.5648 120.006 55.5442C120.154 55.5001 120.306 55.4648 120.46 55.4384C120.891 55.3589 121.181 54.897 121.05 54.5322C120.901 54.1351 120.477 53.9321 120.013 54.0174C118.582 54.2822 117.279 55.1618 116.63 56.3091C116.529 56.4886 116.482 56.6799 116.546 56.877C116.599 57.0476 116.751 57.2329 116.933 57.3152C117.313 57.4917 117.878 57.4212 118.084 57.0505Z" fill="#6A62C6"/>
<path d="M113.086 46.3993C113.655 45.1725 113.78 44.1311 113.595 42.8191C113.511 42.2219 113.295 41.6424 113.019 41.0893C111.864 38.777 109.66 36.95 107.155 35.6938C104.651 34.4377 101.85 33.7052 99.0359 33.1345C100.561 35.1173 100.13 37.7414 100.618 40.092C101.358 43.6604 104.513 46.7611 108.478 47.8231C109.225 48.0232 110.03 48.1556 110.787 47.9791C111.548 47.8026 112.794 47.0347 113.086 46.3993Z" fill="#9F80FF"/>
<path d="M120.38 54.2505C120.262 52.5442 121 51.4705 122.336 50.2202C123.672 48.9699 125.608 48.2285 127.564 48.2138C128.5 48.2079 129.429 48.358 130.344 48.5169C134.148 49.1729 137.922 49.9584 141.658 50.8704C140.557 51.747 139.457 52.6207 138.359 53.4973C135.979 55.3919 133.509 57.3336 130.465 58.2486C127.422 59.1635 123.625 58.7809 121.606 56.5922C120.979 55.9156 120.555 55.1007 120.38 54.2505Z" fill="#9F80FF"/>
<path d="M120.163 36.5469C117.82 35.7584 115.444 34.7523 114.545 32.7048C113.643 30.6572 113.966 28.2891 115.111 26.3357C115.922 24.953 117.13 23.7468 118.595 22.8642C121.375 21.1844 125.219 20.496 126.795 17.8807C125.3 21.714 129.471 25.6825 128.872 29.6981C128.656 31.1367 128.394 34.7641 124.714 36.235C123.496 36.7204 122.122 37.2058 120.163 36.5469Z" fill="#9F80FF"/>
<path d="M9.64705 232.605C10.9296 230.72 12.4679 228.843 14.9287 228.41C17.3894 227.978 20.0083 228.654 22.018 229.966C23.4419 230.899 24.5964 232.14 25.3471 233.55C26.771 236.227 26.9057 239.654 29.5886 241.451C25.5154 239.519 20.3382 242.446 15.9116 241.251C14.3261 240.825 10.2798 239.986 9.23629 236.568C8.89294 235.444 8.57658 234.182 9.64705 232.605Z" fill="#9F80FF"/>
<path d="M83.8422 125.922C86.2591 126.51 88.7367 127.313 89.8577 129.276C90.9786 131.238 90.9179 133.624 89.9956 135.662C89.3392 137.107 88.2687 138.407 86.9088 139.41C84.3235 141.314 80.5736 142.323 79.2944 145.056C80.3615 141.114 75.7733 137.516 75.9315 133.468C75.9887 132.018 75.8507 128.387 79.3549 126.613C80.5062 126.028 81.8157 125.431 83.8422 125.922Z" fill="#9F80FF"/>
</svg>
