<svg width="375" height="396" viewBox="0 0 375 396" fill="none" xmlns="http://www.w3.org/2000/svg">
<path opacity="0.42" d="M301.546 202.558C292.867 190.68 282.484 175.187 276.301 164.881C273.056 159.473 269.875 153.532 268.578 146.733C266.527 135.995 269.36 122.957 276.56 110.02C276.874 109.455 277.197 108.896 277.524 108.337C278.977 106.044 280.422 103.75 281.828 101.421C283.465 98.9348 285.141 96.5002 286.791 94.1071C290.235 89.111 293.799 83.9439 296.887 78.4557C302.186 69.0359 307.972 54.7935 305.431 40.4241C303.512 29.5695 296.716 19.8906 287.252 14.5319C279.583 10.1911 270.316 8.43506 258.917 9.15767C248.329 9.83107 233.134 12.4133 220.867 20.893C215.006 24.9437 209.197 29.37 203.579 33.6487C191.999 42.4702 180.026 51.5922 167.2 57.7098C157.788 62.2009 137.886 75.5679 124.556 92.3148C124.556 92.3148 97.8734 122.589 92.7919 140.507C87.0395 160.787 71.1395 175.148 59.2488 191.618C47.3581 208.088 33.0483 231.248 41.1991 250.714C56.1977 286.541 80.7717 288.663 90.7199 288.292L276.252 290.574C281.517 290.069 288.736 288.924 296.091 286.358C307.894 282.237 315.993 275.881 320.163 267.466C327.889 251.872 321.626 230.03 301.546 202.558ZM147.174 77.1141C142.478 79.5305 136.695 83.4207 130.642 88.3987C142.898 75.0265 159.285 63.7834 168.091 59.5798C175.773 55.9149 183.123 51.2115 190.254 46.1455C176.299 57.4068 162.626 69.1576 147.174 77.1141ZM242.851 22.5765C231.248 23.7187 218.368 26.7982 207.705 33.11C212.403 29.541 217.21 25.9357 222.041 22.5972C233.916 14.3869 248.718 11.8823 259.044 11.2271C270.028 10.5304 278.92 12.2009 286.226 16.3346C295.159 21.3902 301.574 30.5303 303.387 40.7842C305.822 54.55 300.212 68.3159 295.079 77.4404C293.46 80.3179 291.699 83.1125 289.894 85.8502C294.126 75.4539 296.368 63.7626 293.732 52.7966C290.888 40.9681 282.613 31.7425 273.136 27.0079C263.659 22.2734 253.087 21.569 242.851 22.5765ZM318.303 266.547C310.761 281.763 290.72 286.617 278.785 288.163C280.696 287.805 282.639 287.3 284.638 286.601C295.682 282.737 303.276 278.018 307.581 265.228C312.152 251.649 298.845 232.242 292.704 219.582C286.563 206.925 277.739 196.513 269.963 185.218C265.985 179.437 262.196 173.242 260.367 166.078C256.98 152.799 260.862 138.298 266.848 126.407C267.412 125.285 268 124.182 268.599 123.087C265.889 131.618 265.154 139.854 266.542 147.117C267.902 154.231 271.183 160.37 274.524 165.943C280.738 176.298 291.16 191.856 299.873 203.778C319.461 230.579 325.661 251.698 318.303 266.547Z" fill="#F5EAFA"/>
<path d="M323.475 289.782H50.7842V290.3H323.475V289.782Z" fill="#F15A24"/>
<path d="M68.6815 227.617L68.5908 227.422C68.4458 227.433 68.2904 227.44 68.1272 227.44C63.7449 227.44 53.2787 223.377 50.2562 221.077C44.1049 216.397 39.7822 211.572 37.0394 206.322C33.8485 200.22 31.8827 193.576 30.1396 187.298C29.1606 183.77 28.2075 180.17 27.2854 176.689C25.5165 170.007 23.6931 163.123 22.2842 156.247C19.5776 143.038 18.2878 129.368 17.042 116.146L17.5496 116.055C20.782 128.018 29.6164 137.182 38.1609 146.042C38.7902 146.695 39.4196 147.347 40.0438 147.997C52.3981 160.88 65.576 176.666 69.6398 196.081C70.6136 200.74 70.8519 204.765 70.365 208.386C70.1189 210.201 69.6838 212.074 69.259 213.882C68.223 218.308 67.1534 222.882 68.9042 226.865L69.6294 226.759L68.6815 227.617ZM17.7983 118.629C18.9741 131.043 20.264 143.799 22.7918 156.14C24.1982 163.001 26.0189 169.88 27.7801 176.531C28.7074 180.033 29.6605 183.631 30.6369 187.156C32.3722 193.408 34.3303 200.02 37.4952 206.078C40.2018 211.258 44.4779 216.026 50.567 220.66C53.8951 223.19 64.4675 227.078 68.3603 226.915C66.6328 222.815 67.7102 218.212 68.7514 213.757C69.171 211.96 69.6061 210.103 69.847 208.311C70.3261 204.749 70.093 200.782 69.1295 196.182C65.0943 176.894 51.9708 161.178 39.6657 148.35C39.0415 147.7 38.4147 147.049 37.7853 146.397C29.7874 138.098 21.5305 129.538 17.7983 118.629Z" fill="#9F80FF"/>
<path d="M75.9926 225.495C72.9597 219.929 75.7128 213.014 76.1816 206.609C76.4821 202.509 75.7983 198.401 74.7183 194.459C69.6367 175.891 56.205 161.198 42.3226 148.388C32.6619 139.471 22.1257 130.445 17.8574 117.769C19.9372 131.097 22.0247 144.457 25.5238 157.448C27.3472 164.221 29.5487 170.872 31.7502 177.518C32.9027 180.999 34.0553 184.48 35.2467 187.945C37.4456 194.335 39.8025 200.719 43.2679 206.464C46.7333 212.211 51.7864 216.63 57.2824 220.305C60.7737 222.641 72.4443 226.192 76.0444 225.438L75.9926 225.495Z" fill="#9F80FF"/>
<path d="M75.9457 225.29C73.0216 221.167 70.1131 217.028 67.3081 212.82C65.9121 210.711 64.542 208.585 63.2211 206.425C61.9028 204.262 60.6596 202.061 59.3853 199.88L44.2442 173.597L36.7073 160.434C35.4511 158.24 34.2001 156.044 32.9647 153.835L31.1232 150.517C30.5224 149.403 29.9163 148.295 29.3284 147.176C28.1396 144.943 26.9818 142.695 25.8603 140.426C24.7337 138.163 23.6459 135.878 22.6021 133.573C22.3457 132.996 22.079 132.423 21.8303 131.838C21.5791 131.253 21.3589 130.66 21.1491 130.061C20.7296 128.867 20.354 127.658 19.9992 126.443C19.6444 125.228 19.3102 124.008 18.9943 122.786C18.6809 121.561 18.3753 120.333 18.124 119.095C18.3934 120.331 18.7223 121.551 19.0538 122.77C19.3905 123.988 19.7428 125.202 20.1183 126.407C20.4939 127.614 20.8875 128.813 21.3253 129.997C21.5454 130.587 21.7733 131.175 22.0297 131.747C22.2861 132.322 22.5633 132.892 22.8275 133.465C23.8971 135.754 25.0005 138.026 26.1478 140.276C27.29 142.53 28.4685 144.765 29.6754 146.984C34.5006 155.863 39.6728 164.555 44.6871 173.335L59.7246 199.678C60.9781 201.874 62.2006 204.086 63.4956 206.254C64.7906 208.422 66.1426 210.556 67.5127 212.68C70.2503 216.935 73.089 221.12 75.9457 225.29Z" fill="#61469A"/>
<path d="M75.9456 225.29C75.5468 224.552 75.1376 223.817 74.7594 223.068C74.3942 222.312 74.0135 221.563 73.6638 220.799C73.3297 220.028 72.9775 219.264 72.6615 218.487C72.3507 217.704 72.0218 216.93 71.7265 216.143C70.53 212.998 69.5406 209.779 68.6729 206.528L68.0772 204.076L67.5411 201.61L67.062 199.134C66.9091 198.308 66.7848 197.474 66.6553 196.645C66.531 195.814 66.4326 194.977 66.3212 194.146C66.2176 193.312 66.1425 192.473 66.0545 191.639C65.9845 190.802 65.9405 189.96 65.8835 189.124C65.8421 188.285 65.8239 187.445 65.8032 186.606L66.0208 189.113C66.1166 189.947 66.1995 190.781 66.3083 191.613C66.4248 192.444 66.5207 193.275 66.6476 194.104C66.7822 194.93 66.904 195.759 67.0516 196.585C67.6266 199.885 68.3181 203.167 69.178 206.402C69.999 209.649 70.991 212.851 72.1021 216.01C72.374 216.803 72.6796 217.583 72.9671 218.37C73.2598 219.155 73.5913 219.924 73.8995 220.704C74.2129 221.481 74.56 222.245 74.8889 223.016L75.9456 225.29Z" fill="#495E1C"/>
<path d="M71.1669 218.284C70.4132 217.158 69.3487 216.308 68.2402 215.568C67.1239 214.827 65.9429 214.19 64.7567 213.555C63.5627 212.931 62.3894 212.25 61.2421 211.535C60.1051 210.802 58.9836 210.04 57.9087 209.217C55.759 207.572 53.7362 205.757 51.9025 203.77C50.9727 202.786 50.1102 201.745 49.2737 200.685L48.6624 199.877C48.4604 199.608 48.2688 199.328 48.0719 199.056C47.6705 198.515 47.3105 197.943 46.9375 197.381C48.564 199.53 50.3123 201.579 52.1952 203.49C52.6588 203.975 53.1535 204.431 53.6275 204.902C54.1222 205.355 54.6039 205.819 55.1167 206.254C56.1165 207.147 57.1576 207.992 58.2247 208.805C59.284 209.629 60.3899 210.385 61.5088 211.123C62.6329 211.856 63.7854 212.535 64.9561 213.203C66.1268 213.869 67.2949 214.563 68.3905 215.36C68.9318 215.767 69.4549 216.202 69.9367 216.681C70.4107 217.16 70.8458 217.691 71.1669 218.284Z" fill="#61469A"/>
<path d="M59.3336 199.209C57.7148 194.073 56.5726 188.79 55.749 183.467C55.345 180.805 55.016 178.129 54.7752 175.446C54.5265 172.765 54.3685 170.077 54.2856 167.386C54.568 170.061 54.8606 172.734 55.1766 175.404C55.5004 178.072 55.8474 180.735 56.2592 183.389C56.6607 186.044 57.1243 188.689 57.6371 191.325C58.1551 193.962 58.7197 196.588 59.3336 199.209Z" fill="#61469A"/>
<path d="M59.2401 199.321C54.9847 195.14 50.7008 190.989 45.9948 187.347C43.656 185.511 41.2422 183.739 39.0122 181.74C37.8959 180.742 36.8262 179.688 35.8446 178.559C34.8734 177.422 33.972 176.218 33.2339 174.92C34.8967 177.404 37.0205 179.515 39.2789 181.437C41.5452 183.356 43.9617 185.101 46.316 186.94C47.4892 187.865 48.647 188.813 49.771 189.8C50.8925 190.789 51.9933 191.799 53.0629 192.84C55.2126 194.912 57.2587 197.091 59.2401 199.321Z" fill="#61469A"/>
<path d="M46.682 177.127C45.8169 174.892 44.9855 172.646 44.2163 170.375C43.4419 168.106 42.7296 165.816 42.0977 163.501C41.4761 161.183 40.9399 158.839 40.5359 156.474C40.1215 154.109 39.8418 151.724 39.689 149.331C40.0438 151.701 40.4556 154.058 40.9322 156.399C41.4165 158.738 41.9707 161.061 42.5975 163.366C43.2165 165.674 43.9029 167.963 44.5996 170.253C45.3015 172.54 46.006 174.827 46.682 177.127Z" fill="#61469A"/>
<path d="M46.6808 177.127C45.6085 176.588 44.6373 175.863 43.6893 175.125C42.7517 174.373 41.8504 173.576 40.975 172.755C39.2241 171.108 37.5691 169.367 35.9633 167.585C34.3653 165.795 32.8139 163.964 31.3324 162.076C30.5891 161.133 29.8665 160.178 29.1672 159.201C28.8201 158.712 28.4808 158.217 28.1519 157.715C27.9861 157.463 27.8281 157.21 27.6727 156.951C27.5303 156.686 27.3645 156.43 27.292 156.135C27.3904 156.42 27.5769 156.658 27.7401 156.907C27.911 157.153 28.0845 157.394 28.2658 157.634C28.6258 158.111 28.9962 158.582 29.3718 159.046C30.1177 159.981 30.8817 160.9 31.6484 161.817C32.4202 162.731 33.192 163.646 33.9794 164.544C34.7616 165.448 35.5489 166.35 36.3518 167.235C37.9447 169.017 39.5764 170.766 41.2599 172.462C42.1068 173.304 42.9641 174.135 43.8577 174.928C44.7383 175.731 45.6655 176.487 46.6808 177.127Z" fill="#61469A"/>
<path d="M82.2687 211.595C82.1081 205.257 87.7103 200.357 91.0462 194.869C93.1804 191.357 94.4443 187.386 95.2808 183.387C99.2202 164.545 93.9625 145.345 87.4461 127.614C82.911 115.275 77.6481 102.437 79.6269 89.2095C75.4052 102.02 71.1731 114.863 68.3655 128.023C66.9022 134.882 65.8299 141.807 64.7603 148.725C64.2008 152.349 63.6388 155.972 63.1208 159.601C62.1651 166.29 61.3544 173.048 61.8206 179.74C62.2842 186.433 64.7706 192.67 67.9848 198.448C70.0283 202.118 78.7981 210.598 82.3464 211.569L82.2687 211.595Z" fill="#9F80FF"/>
<path d="M82.3171 211.39C81.5919 206.386 80.8926 201.38 80.3125 196.355C80.0302 193.843 79.7815 191.325 79.5898 188.803C79.4008 186.278 79.2972 183.752 79.1599 181.227L77.6603 150.932L76.9506 135.783C76.8315 133.258 76.7201 130.732 76.6269 128.205L76.5 124.413C76.4741 123.149 76.4404 121.885 76.4249 120.618C76.386 118.091 76.3782 115.56 76.4145 113.03C76.443 110.499 76.5181 107.971 76.6372 105.446C76.6735 104.814 76.6968 104.185 76.7408 103.55C76.7823 102.916 76.86 102.286 76.9429 101.66C77.1138 100.403 77.3314 99.1577 77.567 97.9145C77.8053 96.6713 78.0643 95.4358 78.3415 94.2004C78.6212 92.9676 78.9061 91.7347 79.2506 90.52C78.9294 91.7425 78.6626 92.9779 78.4036 94.216C78.1472 95.454 77.9089 96.6946 77.694 97.9378C77.479 99.181 77.2822 100.429 77.1319 101.683C77.0594 102.31 76.9921 102.936 76.961 103.563C76.9273 104.193 76.9144 104.825 76.8885 105.457C76.7952 107.982 76.7434 110.507 76.7383 113.032C76.7279 115.558 76.7564 118.085 76.8211 120.611C77.0698 130.712 77.7121 140.805 78.1731 150.906L79.551 181.206C79.6676 183.732 79.7453 186.259 79.911 188.777C80.0768 191.297 80.3073 193.812 80.5585 196.327C81.0584 201.359 81.6774 206.376 82.3171 211.39Z" fill="#604598"/>
<path d="M82.3171 211.39C82.299 210.551 82.2705 209.712 82.2731 208.87C82.2938 208.031 82.2938 207.189 82.3327 206.35C82.3845 205.511 82.4207 204.672 82.4933 203.833C82.5735 202.996 82.6331 202.157 82.7289 201.32C83.0967 197.977 83.6847 194.659 84.3943 191.372L84.9823 188.919L85.6272 186.48L86.3291 184.055C86.5699 183.25 86.8393 182.452 87.1009 181.654C87.3702 180.857 87.6629 180.069 87.9426 179.277C88.2301 178.487 88.5461 177.707 88.8491 176.922C89.1677 176.145 89.5122 175.379 89.8411 174.604C90.1856 173.838 90.5534 173.084 90.916 172.325L89.968 174.656C89.6754 175.441 89.3672 176.221 89.0848 177.01C88.8103 177.803 88.515 178.588 88.2509 179.38C87.9944 180.178 87.7251 180.971 87.479 181.771C86.4871 184.97 85.6065 188.204 84.8968 191.478C84.1483 194.742 83.5707 198.044 83.12 201.364C83.0009 202.193 82.918 203.027 82.8144 203.858C82.716 204.69 82.6616 205.526 82.5813 206.36C82.5062 207.194 82.4674 208.031 82.4078 208.87L82.3171 211.39Z" fill="#495E1C"/>
<path d="M81.2612 202.978C81.1032 201.634 80.5438 200.391 79.8937 199.225C79.2385 198.057 78.477 196.951 77.7104 195.845C76.9334 194.744 76.1978 193.605 75.5011 192.444C74.8225 191.274 74.1724 190.085 73.5923 188.862C72.4294 186.417 71.4555 183.882 70.7277 181.276C70.3496 179.979 70.0543 178.658 69.7928 177.332L69.6166 176.335C69.5597 176.003 69.5156 175.666 69.4638 175.335C69.355 174.669 69.2929 173.996 69.2178 173.328C69.6866 175.982 70.3082 178.601 71.1136 181.162C71.3053 181.805 71.5358 182.437 71.7456 183.074C71.9787 183.703 72.1963 184.338 72.4527 184.957C72.9344 186.208 73.4783 187.435 74.0559 188.642C74.6231 189.857 75.2654 191.035 75.9207 192.204C76.5863 193.369 77.3011 194.498 78.0393 195.625C78.7774 196.752 79.5 197.899 80.1113 199.111C80.4091 199.72 80.6759 200.346 80.8831 200.991C81.0981 201.634 81.2457 202.302 81.2612 202.978Z" fill="#604598"/>
<path d="M79.4194 180.606C80.3182 175.296 81.709 170.072 83.4054 164.959C84.2601 162.406 85.1873 159.875 86.1949 157.376C87.1946 154.876 88.2798 152.411 89.4349 149.979C88.4663 152.491 87.508 155.003 86.573 157.521C85.6458 160.041 84.7419 162.571 83.8975 165.12C83.0454 167.666 82.2529 170.233 81.5044 172.812C80.7636 175.397 80.0669 177.992 79.4194 180.606Z" fill="#604598"/>
<path d="M79.2872 180.662C77.4043 175.003 75.4851 169.354 72.9547 163.967C71.7089 161.266 70.3699 158.59 69.295 155.793C68.7537 154.397 68.2823 152.973 67.9249 151.517C67.5778 150.061 67.3266 148.58 67.2593 147.088C67.6063 150.059 68.5336 152.903 69.6706 155.643C70.8128 158.386 72.1673 161.04 73.4261 163.75C74.0502 165.107 74.6485 166.479 75.2002 167.868C75.7467 169.259 76.2673 170.66 76.7438 172.076C77.7125 174.905 78.5413 177.772 79.2872 180.662Z" fill="#604598"/>
<path d="M78.4038 155.202C78.6524 152.819 78.9348 150.439 79.287 148.069C79.6315 145.696 80.0407 143.332 80.5354 140.982C81.0404 138.636 81.631 136.305 82.3484 134.015C83.058 131.723 83.8972 129.47 84.8503 127.271C84.0863 129.542 83.3792 131.827 82.7369 134.129C82.1023 136.432 81.5351 138.752 81.043 141.091C80.5406 143.427 80.1106 145.779 79.6859 148.133C79.2663 150.488 78.8519 152.847 78.4038 155.202Z" fill="#604598"/>
<path d="M78.2221 155.184C77.5125 154.216 76.9789 153.128 76.4713 152.04C75.9792 150.945 75.5389 149.823 75.1349 148.694C74.3268 146.43 73.6482 144.128 73.0292 141.807C72.4206 139.486 71.8741 137.148 71.4156 134.793C71.1851 133.618 70.9753 132.434 70.7966 131.248C70.7112 130.655 70.6334 130.059 70.5713 129.461C70.5402 129.163 70.5117 128.862 70.4936 128.562C70.4884 128.261 70.4573 127.958 70.5247 127.663C70.4832 127.961 70.5402 128.259 70.5713 128.554C70.6127 128.849 70.6568 129.145 70.7086 129.44C70.8096 130.028 70.9261 130.616 71.0504 131.201C71.2887 132.374 71.5503 133.54 71.8145 134.708C72.0864 135.873 72.3532 137.039 72.6459 138.197C72.9308 139.357 73.2209 140.517 73.5317 141.672C74.1377 143.985 74.793 146.285 75.5182 148.562C75.8885 149.696 76.2719 150.828 76.707 151.942C77.1291 153.055 77.6109 154.151 78.2221 155.184Z" fill="#604598"/>
<path d="M11.9191 280.217C9.4508 280.217 6.6277 278.914 5.3068 277.114C4.50131 276.016 4.31483 274.832 4.76808 273.693C5.13586 272.771 5.14881 271.421 4.44951 270.74C4.18015 270.478 3.87194 270.235 3.57409 269.999C3.00947 269.551 2.42413 269.088 2.03045 268.448C1.37259 267.378 1.39072 266.117 1.47619 264.703C1.76109 260.028 2.05635 255.192 2.85407 250.486C3.11307 248.963 3.42646 247.427 3.79165 245.923C4.85355 241.53 6.40237 237.005 8.66603 231.683C10.6241 227.075 12.9551 222.336 16.7235 218.875C21.0229 214.928 26.8323 212.991 31.9579 211.281C33.2633 210.846 34.6153 210.396 35.9983 210.129C37.7595 209.79 39.5725 209.746 41.3234 209.704L56.8634 209.334C59.4844 209.272 62.4267 209.37 64.1775 211.344C65.9128 213.299 65.6331 216.239 64.7939 218.337C64.2811 219.616 63.5559 220.802 62.8514 221.95C62.3334 222.797 61.7947 223.675 61.3544 224.573C60.2278 226.878 59.6657 229.453 59.1244 231.944C58.9379 232.799 58.7463 233.685 58.5339 234.547C58.0988 236.311 57.5549 238.124 57.0265 239.88C55.1514 246.127 53.2115 252.587 55.6279 258.453C56.7649 261.211 57.2493 264.762 56.0941 265.928C55.8092 266.215 55.2886 266.49 54.4391 266.148C49.8859 264.314 44.6774 265.537 41.1524 266.617C34.9105 268.528 28.5935 271.558 22.3775 275.627C22.134 275.788 21.888 275.949 21.6419 276.112C18.7826 277.997 15.8248 279.95 12.4008 280.201C12.248 280.212 12.0848 280.217 11.9191 280.217ZM5.25241 273.884C4.76808 275.104 5.24205 276.148 5.72897 276.808C7.01879 278.567 9.99988 279.857 12.3723 279.683C15.6616 279.442 18.5598 277.528 21.3648 275.679C21.6109 275.516 21.8569 275.355 22.103 275.192C28.3604 271.097 34.7214 268.044 41.01 266.119C44.6075 265.019 49.9351 263.773 54.6411 265.666C55.1177 265.858 55.4751 265.824 55.7341 265.563C56.6044 264.685 56.3402 261.52 55.1565 258.65C52.6701 252.613 54.636 246.065 56.537 239.73C57.0628 237.982 57.6041 236.174 58.0366 234.423C58.2464 233.568 58.4381 232.688 58.6246 231.836C59.1736 229.316 59.7408 226.707 60.896 224.345C61.3466 223.423 61.8905 222.535 62.4163 221.678C63.1078 220.548 63.8227 219.38 64.3174 218.142C65.0996 216.189 65.3715 213.467 63.7942 211.685C62.191 209.878 59.3834 209.79 56.8815 209.849L41.3415 210.22C39.6114 210.261 37.8191 210.302 36.1019 210.634C34.7525 210.896 33.4161 211.338 32.1263 211.771C27.0499 213.465 21.2949 215.381 17.0784 219.253C13.3824 222.646 11.0825 227.329 9.14777 231.882C6.89706 237.179 5.35601 241.678 4.29929 246.042C3.93669 247.534 3.62589 249.059 3.36948 250.572C2.57694 255.249 2.28168 260.069 1.99937 264.731C1.91908 266.06 1.89836 267.233 2.47852 268.176C2.82299 268.738 3.34876 269.152 3.90302 269.593C4.21123 269.836 4.5298 270.09 4.81729 270.37C5.68235 271.217 5.69012 272.781 5.25241 273.884Z" fill="#AC92FF"/>
<path d="M10.5603 280.587C9.20837 284.374 14.9064 287.497 18.9053 287.062C22.9043 286.627 26.2713 284.022 29.5554 281.701C35.8336 277.27 42.6427 273.545 49.905 271.038C54.6628 269.396 59.9413 268.298 64.6732 270.012C67.4393 271.015 67.201 266.032 65.3259 261.898C61.5781 253.644 65.7118 244.218 67.5714 235.345C68.3562 231.6 68.7421 227.715 70.3038 224.221C71.3657 221.841 72.9482 219.707 73.8314 217.254C74.7146 214.801 74.7405 211.776 72.9431 209.888C71.0187 207.865 67.8408 207.886 65.0539 208.052C59.3689 208.388 53.6812 208.722 47.9962 209.059C46.0563 209.173 44.1034 209.29 42.2075 209.725C40.7183 210.067 39.2808 210.603 37.8486 211.136C31.9952 213.32 25.9553 215.62 21.5057 220.005C17.5533 223.897 15.2042 229.106 13.2151 234.286C11.2415 239.424 9.52953 244.679 8.4236 250.074C8.08172 251.74 7.79941 253.421 7.57408 255.107C6.88255 260.287 6.74786 265.524 6.61318 270.748C6.57951 272.1 6.56916 273.55 7.32025 274.677C7.98588 275.679 9.13066 276.239 10.0216 277.049C10.91 277.857 10.9644 279.453 10.5603 280.587Z" fill="#A98FFF"/>
<path d="M60.8847 265.104C59.354 263.488 58.0719 261.639 57.0541 259.657C56.0284 257.679 55.267 255.565 54.7438 253.395C54.2336 251.222 53.9616 248.989 53.9746 246.754C53.9746 244.516 54.3087 242.286 54.8293 240.116C55.8704 235.767 57.5643 231.628 58.6728 227.355C59.2297 225.218 59.6104 223.035 59.6855 220.831C59.758 218.632 59.4861 216.404 58.7272 214.314L58.7764 214.296C59.2271 215.317 59.5405 216.394 59.7529 217.495C59.9523 218.596 60.0429 219.717 60.0481 220.838C60.0481 223.081 59.6907 225.309 59.1753 227.484C58.116 231.838 56.3056 235.925 55.2281 240.217C54.6868 242.359 54.332 244.55 54.3061 246.762C54.2672 248.971 54.5107 251.183 54.9924 253.343C55.4794 255.5 56.202 257.609 57.1913 259.593C58.173 261.579 59.4213 263.439 60.921 265.073L60.8847 265.104Z" fill="#604598"/>
<path d="M60.708 264.817C58.2553 261.802 55.686 258.873 52.8448 256.228C50.0139 253.574 46.9215 251.204 43.5596 249.272C41.8865 248.293 40.1719 247.376 38.4651 246.443C36.7583 245.514 35.0593 244.566 33.3654 243.612C29.988 241.686 26.6055 239.764 23.2773 237.751L23.3032 237.707C26.7738 239.466 30.1926 241.318 33.6166 243.164C35.3234 244.097 37.0251 245.037 38.7163 245.993C40.4076 246.951 42.1066 247.899 43.7746 248.912C47.1338 250.901 50.2211 253.335 53.0261 256.037C55.8336 258.743 58.3511 261.724 60.7495 264.783L60.708 264.817Z" fill="#604598"/>
<path d="M60.8794 265.099C60.3122 264.156 59.543 263.338 58.6339 262.719C57.7351 262.084 56.7199 261.634 55.6761 261.294C54.6297 260.963 53.5445 260.758 52.4516 260.655C51.356 260.554 50.2552 260.543 49.1597 260.59C48.0641 260.657 46.9711 260.787 45.8911 260.986C44.8137 261.199 43.744 261.455 42.695 261.781C40.5971 262.434 38.5666 263.297 36.6241 264.325C32.7313 266.384 29.2141 269.064 25.7461 271.781C24.003 273.133 22.291 274.529 20.5428 275.887C19.6673 276.562 18.7686 277.228 17.7896 277.764C16.8106 278.29 15.7357 278.689 14.6194 278.746L14.6143 278.694C15.7098 278.557 16.7406 278.127 17.6705 277.557C18.608 276.995 19.4679 276.306 20.3148 275.602C22.0113 274.19 23.7077 272.773 25.4197 271.375C28.8567 268.596 32.4749 265.982 36.4298 263.954C38.4034 262.939 40.4676 262.092 42.5966 261.458C43.6611 261.139 44.7463 260.893 45.8367 260.691C46.9323 260.504 48.0382 260.385 49.1467 260.331C50.2578 260.3 51.3689 260.328 52.4723 260.448C53.5756 260.569 54.6712 260.795 55.7253 261.147C56.7743 261.504 57.7947 261.978 58.6935 262.633C59.6025 263.273 60.3666 264.112 60.9234 265.071L60.8794 265.099Z" fill="#604598"/>
<path d="M60.8845 265.102C59.5739 263.649 58.0432 262.403 56.3701 261.4C54.697 260.393 52.8917 259.626 51.0373 259.028C47.3206 257.824 43.4356 257.256 39.5662 256.684C37.6289 256.404 35.6941 256.107 33.7568 256.013C31.8195 255.899 29.8925 256.099 27.9552 256.376C26.0205 256.627 24.0702 256.956 22.0889 256.966C21.1021 256.972 20.1075 256.894 19.1388 256.679C18.1728 256.459 17.2404 256.096 16.4038 255.576L16.4297 255.532C18.165 256.454 20.1515 256.7 22.0785 256.609C24.0184 256.521 25.9402 256.174 27.8775 255.868C28.8462 255.721 29.8252 255.591 30.812 255.513C31.7988 255.433 32.7959 255.441 33.7801 255.498C35.7537 255.62 37.6936 255.956 39.6258 256.267C43.4874 256.894 47.3854 257.515 51.115 258.779C52.9746 259.417 54.7824 260.225 56.4478 261.266C58.1158 262.307 59.6309 263.586 60.9181 265.065L60.8845 265.102Z" fill="#604598"/>
<path d="M60.7104 264.817C57.8899 261.732 54.9088 258.787 52.2826 255.516C50.9746 253.879 49.7677 252.154 48.7343 250.32C47.6983 248.492 46.8539 246.552 46.2013 244.552C44.8855 240.556 44.1552 236.417 43.0855 232.395C42.5597 230.383 41.9122 228.399 41.0394 226.516C40.1666 224.635 39.027 222.869 37.5869 221.354L37.6232 221.318C38.3976 222.025 39.0891 222.82 39.7159 223.667C40.3375 224.516 40.8788 225.423 41.358 226.36C42.3188 228.238 42.9948 230.243 43.5776 232.26C44.7249 236.303 45.3569 240.45 46.6027 244.423C47.2191 246.41 48.0298 248.331 49.0295 250.155C50.0267 251.981 51.2025 253.708 52.4846 255.353C55.0435 258.65 57.9754 261.649 60.7441 264.783L60.7104 264.817Z" fill="#604598"/>
<path d="M223.224 266.787L222.773 266.785L130.75 266.334C130.717 266.427 130.683 266.521 130.647 266.614L130.16 266.438C130.173 266.401 130.186 266.368 130.199 266.331L128.821 266.324L128.823 265.806L130.388 265.813C140.447 238.499 153.115 223.993 168.046 222.698C174.534 222.136 181.468 224.089 188.65 228.51C194.379 232.035 200.279 237.129 206.189 243.648C216.244 254.739 222.934 266.28 222.998 266.396L223.224 266.787ZM130.939 265.819L222.32 266.267C221.064 264.158 214.778 253.894 205.798 243.993C196.578 233.822 182.55 221.965 168.09 223.218C153.41 224.49 140.914 238.823 130.939 265.819Z" fill="#9F80FF"/>
<path d="M180.749 269.709L331.35 270.447C331.35 270.447 240.651 112.965 183.282 270.447" fill="#8367E9"/>
<path d="M332.173 265.912L331.722 265.91L184.1 265.187C184.032 265.371 183.965 265.557 183.898 265.739L183.411 265.563C183.457 265.436 183.501 265.311 183.548 265.184L181.119 265.171L181.121 264.653L183.737 264.666C199.847 220.88 220.122 197.624 244.007 195.552C254.374 194.654 265.454 197.78 276.938 204.845C286.107 210.489 295.555 218.642 305.019 229.082C321.124 246.847 331.839 265.335 331.945 265.519L332.173 265.912ZM184.291 264.672L331.269 265.392C329.632 262.628 319.404 245.723 304.631 229.427C289.824 213.094 267.301 194.053 244.053 196.07C220.417 198.122 200.313 221.201 184.291 264.672Z" fill="#8367E9"/>
<path d="M135.985 270.093L229.937 270.554C229.937 270.554 173.353 172.31 137.567 270.554" fill="#9F80FF"/>
<path d="M305.403 233.327L304.287 232.701L304.442 232.553C302.852 228.808 303.385 216.881 304.654 213.151C307.146 205.835 310.352 200.204 314.463 195.941C319.241 190.983 324.916 187.013 330.321 183.371C333.339 181.338 336.428 179.308 339.42 177.345L339.495 177.295C345.253 173.514 351.204 169.606 357.288 166.086C368.961 159.334 381.52 153.781 393.665 148.412L393.914 148.865C383.59 155.718 377.698 167 372 177.909C371.58 178.715 371.16 179.518 370.741 180.315C362.437 196.114 351.637 213.615 334.507 223.617C330.396 226.018 326.654 227.518 323.067 228.202C321.267 228.546 319.353 228.722 317.503 228.893C312.976 229.313 308.298 229.748 305.077 232.67L305.403 233.327ZM391.544 149.916C380.143 154.962 368.451 160.225 357.545 166.534C351.476 170.046 345.53 173.949 339.777 177.728L339.702 177.777C336.713 179.74 333.624 181.771 330.609 183.799C325.227 187.425 319.575 191.377 314.833 196.298C310.777 200.507 307.61 206.073 305.141 213.317C303.794 217.275 303.458 228.538 304.843 232.177C308.185 229.24 312.891 228.805 317.446 228.38C319.283 228.21 321.184 228.033 322.96 227.694C326.491 227.021 330.179 225.542 334.237 223.172C351.254 213.234 362.005 195.809 370.275 180.077C370.694 179.279 371.114 178.476 371.533 177.673C376.874 167.453 382.38 156.912 391.544 149.916Z" fill="#9F80FF"/>
<path d="M297.063 235.793C301.657 231.426 309.049 232.299 315.358 231.095C319.396 230.326 323.188 228.603 326.718 226.542C343.341 216.834 354.066 200.064 362.854 183.343C368.971 171.706 374.97 159.194 386.112 151.797C373.773 157.251 361.406 162.719 349.761 169.458C343.69 172.97 337.834 176.816 331.981 180.66C328.917 182.672 325.85 184.685 322.812 186.733C317.208 190.51 311.649 194.436 306.995 199.266C302.338 204.099 299.375 210.121 297.247 216.381C295.892 220.357 295.478 232.55 297.135 235.832L297.063 235.793Z" fill="#9F80FF"/>
<path d="M297.247 235.695C300.474 231.805 303.719 227.927 307.06 224.13C308.736 222.237 310.437 220.365 312.18 218.531C313.929 216.697 315.734 214.928 317.513 213.133L338.992 191.714L349.759 181.033C351.554 179.253 353.354 177.477 355.167 175.713L357.897 173.079C358.816 172.211 359.733 171.338 360.66 170.481C362.509 168.756 364.382 167.054 366.283 165.387C368.179 163.713 370.106 162.071 372.061 160.468C372.553 160.072 373.038 159.665 373.538 159.274C374.037 158.88 374.555 158.515 375.079 158.158C376.125 157.443 377.195 156.77 378.275 156.112C379.355 155.456 380.448 154.817 381.548 154.198C382.652 153.579 383.758 152.965 384.89 152.403C383.766 152.983 382.673 153.615 381.58 154.252C380.489 154.892 379.409 155.547 378.339 156.22C377.272 156.894 376.213 157.585 375.185 158.313C374.672 158.678 374.162 159.051 373.675 159.448C373.185 159.844 372.706 160.258 372.222 160.662C370.287 162.286 368.376 163.939 366.498 165.63C364.615 167.313 362.761 169.031 360.929 170.771C353.6 177.725 346.539 184.97 339.355 192.082L317.793 213.416C315.996 215.195 314.175 216.948 312.416 218.756C310.658 220.569 308.946 222.426 307.249 224.299C303.848 228.036 300.538 231.859 297.247 235.695Z" fill="#664BA8"/>
<path d="M297.247 235.695C297.855 235.12 298.461 234.534 299.085 233.972C299.723 233.426 300.347 232.861 300.994 232.325C301.652 231.802 302.3 231.266 302.97 230.758C303.644 230.256 304.307 229.738 304.993 229.251C307.721 227.282 310.577 225.495 313.494 223.817L315.708 222.61L317.951 221.455L320.22 220.352C320.979 219.989 321.751 219.655 322.52 219.316C323.292 218.981 324.074 218.671 324.848 218.347C325.628 218.031 326.418 217.743 327.202 217.44C327.992 217.155 328.793 216.896 329.588 216.625C330.388 216.368 331.196 216.135 331.999 215.897L329.632 216.754C328.852 217.062 328.068 217.357 327.293 217.679C326.521 218.005 325.742 218.313 324.975 218.65C324.211 218.994 323.442 219.326 322.683 219.681C319.645 221.09 316.653 222.602 313.75 224.27C310.826 225.904 307.987 227.686 305.224 229.577C304.527 230.043 303.854 230.541 303.167 231.022C302.484 231.507 301.828 232.027 301.155 232.525C300.484 233.027 299.837 233.561 299.176 234.076L297.247 235.695Z" fill="#495E1C"/>
<path d="M302.782 229.269C303.675 228.251 304.219 227.003 304.649 225.739C305.076 224.47 305.387 223.164 305.693 221.854C305.988 220.541 306.34 219.227 306.737 217.935C307.151 216.648 307.599 215.368 308.115 214.117C309.148 211.615 310.378 209.191 311.826 206.907C312.536 205.757 313.318 204.651 314.126 203.568L314.747 202.768C314.955 202.501 315.175 202.245 315.387 201.983C315.807 201.455 316.268 200.96 316.713 200.455C315.058 202.584 313.53 204.798 312.17 207.114C311.821 207.686 311.51 208.282 311.176 208.862C310.865 209.458 310.541 210.043 310.254 210.649C309.648 211.846 309.101 213.071 308.594 214.312C308.073 215.547 307.628 216.814 307.203 218.083C306.783 219.357 306.426 220.647 306.084 221.949C305.742 223.252 305.374 224.56 304.885 225.824C304.631 226.453 304.346 227.07 304.007 227.658C303.673 228.248 303.271 228.805 302.782 229.269Z" fill="#495E1C"/>
<path d="M318.15 212.908C322.693 210.018 327.503 207.547 332.432 205.379C334.9 204.301 337.399 203.291 339.927 202.367C342.452 201.434 345.009 200.585 347.588 199.813C345.076 200.776 342.569 201.75 340.072 202.745C337.578 203.745 335.097 204.77 332.639 205.855C330.178 206.93 327.741 208.062 325.327 209.235C322.916 210.414 320.523 211.639 318.15 212.908Z" fill="#664BA8"/>
<path d="M318.021 212.848C320.958 207.658 323.864 202.447 326.167 196.958C327.337 194.223 328.425 191.437 329.777 188.764C330.45 187.427 331.191 186.122 332.03 184.881C332.877 183.648 333.81 182.467 334.872 181.418C332.901 183.667 331.411 186.262 330.14 188.942C328.871 191.628 327.809 194.413 326.641 197.163C326.05 198.536 325.434 199.901 324.773 201.24C324.108 202.579 323.416 203.905 322.686 205.208C321.235 207.818 319.663 210.357 318.021 212.848Z" fill="#664BA8"/>
<path d="M336.213 194.98C338.148 193.568 340.103 192.183 342.097 190.854C344.089 189.518 346.117 188.238 348.192 187.031C350.271 185.832 352.395 184.711 354.576 183.706C356.754 182.696 358.987 181.807 361.256 181.041C359.057 181.996 356.889 183.001 354.75 184.068C352.615 185.14 350.512 186.275 348.448 187.477C346.379 188.671 344.345 189.927 342.312 191.191C340.29 192.46 338.259 193.734 336.213 194.98Z" fill="#664BA8"/>
<path d="M336.213 194.98C336.456 193.804 336.904 192.677 337.373 191.571C337.858 190.471 338.394 189.393 338.961 188.336C340.098 186.22 341.354 184.172 342.659 182.159C343.975 180.152 345.343 178.181 346.783 176.262C347.5 175.301 348.238 174.356 349 173.426C349.383 172.965 349.774 172.509 350.173 172.061C350.372 171.838 350.577 171.618 350.787 171.4C351.004 171.196 351.212 170.968 351.476 170.82C351.227 170.989 351.043 171.232 350.844 171.452C350.652 171.68 350.46 171.911 350.277 172.146C349.909 172.618 349.549 173.097 349.199 173.579C348.489 174.54 347.798 175.516 347.109 176.495C346.425 177.477 345.741 178.458 345.076 179.45C344.405 180.44 343.739 181.434 343.089 182.436C341.779 184.436 340.512 186.464 339.308 188.528C338.712 189.564 338.132 190.608 337.596 191.675C337.06 192.742 336.57 193.835 336.213 194.98Z" fill="#664BA8"/>
<path d="M318.365 266.114C321.103 262.139 326.744 261.628 331.256 259.743C334.143 258.536 336.697 256.656 339.002 254.568C349.86 244.726 355.216 230.548 359.137 216.713C361.867 207.083 364.369 196.821 371.509 189.559C363.175 195.56 354.822 201.577 347.205 208.425C343.234 211.994 339.476 215.778 335.721 219.562C333.755 221.543 331.787 223.522 329.844 225.526C326.262 229.22 322.74 233.017 320.031 237.347C317.321 241.678 316.06 246.63 315.457 251.628C315.073 254.804 316.679 263.952 318.43 266.135L318.365 266.114Z" fill="#9F80FF"/>
<path d="M318.487 266.011C320.256 262.592 322.071 259.199 323.954 255.84C324.902 254.164 325.873 252.501 326.884 250.859C327.896 249.217 328.961 247.614 330.002 245.995L342.626 226.658L348.974 217.013C350.033 215.405 351.095 213.799 352.17 212.201C353.239 210.6 354.332 209.013 355.446 207.443C356.557 205.868 357.686 204.309 358.842 202.768C359.994 201.224 361.173 199.702 362.382 198.202C362.688 197.829 362.986 197.453 363.296 197.083C363.607 196.71 363.936 196.358 364.27 196.011C364.938 195.314 365.633 194.646 366.334 193.988C367.743 192.677 369.183 191.395 370.693 190.201C369.95 190.815 369.238 191.46 368.528 192.11C367.818 192.76 367.117 193.418 366.428 194.089C365.739 194.76 365.06 195.441 364.41 196.148C364.086 196.5 363.765 196.858 363.467 197.231C363.167 197.604 362.874 197.987 362.579 198.365C360.209 201.393 357.948 204.506 355.77 207.676C351.411 214.014 347.29 220.517 343.058 226.946L330.333 246.218C329.272 247.824 328.186 249.414 327.161 251.035C326.132 252.659 325.146 254.309 324.174 255.969C322.219 259.277 320.359 262.646 318.487 266.011Z" fill="#664BA8"/>
<path d="M318.487 266.011C319.888 263.869 321.489 261.859 323.211 259.96C324.928 258.057 326.767 256.267 328.686 254.565C330.611 252.874 332.618 251.274 334.713 249.8C336.806 248.321 338.989 246.969 341.266 245.803C339.088 247.142 336.992 248.601 334.951 250.126C332.916 251.659 330.934 253.265 329.028 254.954C327.117 256.637 325.275 258.399 323.506 260.235C321.745 262.076 320.051 263.985 318.487 266.011Z" fill="#495E1C"/>
<path d="M321.6 260.354C322.092 259.448 322.297 258.435 322.408 257.427C322.52 256.415 322.54 255.397 322.558 254.371C322.566 253.346 322.623 252.312 322.711 251.284C322.815 250.258 322.947 249.233 323.136 248.217C323.514 246.189 324.053 244.187 324.783 242.258C325.135 241.289 325.552 240.344 325.99 239.414C326.443 238.489 326.928 237.58 327.459 236.702C326.581 238.559 325.806 240.455 325.167 242.392C325.001 242.874 324.864 243.366 324.708 243.851C324.573 244.343 324.423 244.83 324.307 245.327C324.045 246.311 323.833 247.308 323.649 248.311C323.271 250.315 323.063 252.341 322.965 254.384C322.911 255.41 322.836 256.441 322.662 257.461C322.566 257.969 322.447 258.476 322.281 258.966C322.116 259.458 321.901 259.935 321.6 260.354Z" fill="#495E1C"/>
<path d="M330.481 245.752C333.38 242.848 336.571 240.243 339.901 237.85C341.572 236.658 343.279 235.516 345.022 234.439C346.762 233.353 348.542 232.333 350.352 231.372L345.239 234.778C343.545 235.923 341.859 237.078 340.199 238.272C338.534 239.455 336.897 240.681 335.278 241.926C333.665 243.177 332.064 244.452 330.481 245.752Z" fill="#495E1C"/>
<path d="M330.375 245.728C331.703 241.382 333.034 237.046 333.887 232.602C334.329 230.382 334.705 228.134 335.303 225.93C335.599 224.829 335.953 223.739 336.391 222.685C336.839 221.636 337.352 220.61 337.992 219.67C336.899 221.667 336.212 223.835 335.694 226.031C335.182 228.23 334.829 230.47 334.394 232.706C334.169 233.822 333.923 234.936 333.638 236.039C333.348 237.14 333.04 238.238 332.695 239.321C332.017 241.488 331.229 243.623 330.375 245.728Z" fill="#495E1C"/>
<path d="M341.121 229.559C342.325 228.186 343.55 226.837 344.822 225.526C346.089 224.211 347.399 222.936 348.754 221.709C350.116 220.489 351.525 219.321 353.001 218.238C354.47 217.148 356.006 216.151 357.588 215.241C356.115 216.319 354.667 217.422 353.247 218.557C351.833 219.699 350.448 220.875 349.101 222.092C347.746 223.304 346.428 224.558 345.107 225.811C343.789 227.07 342.465 228.326 341.121 229.559Z" fill="#664BA8"/>
<path d="M341.121 229.559C341.105 228.642 341.255 227.731 341.421 226.832C341.602 225.933 341.825 225.045 342.079 224.164C342.587 222.406 343.195 220.678 343.853 218.974C344.519 217.272 345.231 215.589 346.013 213.936C346.402 213.11 346.808 212.292 347.236 211.481C347.453 211.08 347.676 210.678 347.909 210.284C348.147 209.896 348.367 209.484 348.699 209.166C348.544 209.331 348.448 209.544 348.336 209.741C348.23 209.943 348.129 210.145 348.031 210.349C347.834 210.758 347.648 211.175 347.466 211.592C347.096 212.424 346.738 213.26 346.384 214.099C346.034 214.941 345.679 215.778 345.345 216.625C345.003 217.466 344.664 218.311 344.34 219.163C343.677 220.857 343.05 222.564 342.47 224.286C342.185 225.148 341.911 226.013 341.672 226.891C341.419 227.764 341.219 228.653 341.121 229.559Z" fill="#664BA8"/>
<path d="M312.387 219.113L312.423 218.901C308.906 216.855 302.19 206.984 300.973 203.237C298.585 195.884 297.785 189.455 298.52 183.581C299.378 176.749 301.545 170.17 303.693 164.016C304.907 160.535 306.174 157.039 307.399 153.659C309.745 147.181 312.172 140.484 314.933 134.027C320.235 121.631 326.969 109.663 333.48 98.0879L333.949 98.3029C329.787 109.976 331.825 122.54 333.796 134.69C333.941 135.586 334.086 136.477 334.229 137.368C337.041 154.993 338.873 175.475 331.144 193.747C329.29 198.132 327.192 201.574 324.726 204.27C323.491 205.625 322.063 206.912 320.686 208.155C317.311 211.204 313.825 214.353 312.996 218.621L313.651 218.948L312.387 219.113ZM332.685 100.559C326.575 111.432 320.364 122.649 315.41 134.229C312.654 140.673 310.23 147.363 307.886 153.832C306.661 157.212 305.394 160.706 304.182 164.185C302.043 170.313 299.885 176.86 299.033 183.643C298.305 189.442 299.1 195.798 301.465 203.076C302.758 207.052 309.235 216.275 312.522 218.357C313.439 214.003 316.946 210.836 320.341 207.769C321.711 206.531 323.125 205.254 324.345 203.918C326.769 201.266 328.836 197.873 330.667 193.542C338.344 175.392 336.516 155.001 333.716 137.448C333.573 136.56 333.428 135.666 333.283 134.773C331.442 123.39 329.536 111.649 332.685 100.559Z" fill="#A98FFF"/>
<path d="M304.886 218.057C306.329 211.885 312.985 208.557 317.598 204.086C320.551 201.227 322.775 197.705 324.594 194.045C333.159 176.806 332.913 156.899 331.082 138.098C329.805 125.014 327.95 111.263 333.203 98.9634C325.886 110.295 318.551 121.657 312.514 133.68C309.367 139.948 306.585 146.378 303.804 152.802C302.348 156.166 300.89 159.531 299.473 162.91C296.862 169.142 294.373 175.477 293.133 182.071C291.892 188.665 292.724 195.327 294.379 201.729C295.43 205.796 301.778 216.215 304.964 218.049L304.886 218.057Z" fill="#A98FFF"/>
<path d="M304.986 217.873C305.548 212.848 306.133 207.826 306.84 202.817C307.2 200.315 307.594 197.816 308.047 195.324C308.5 192.833 309.039 190.362 309.542 187.886L315.734 158.191L318.871 143.353C319.394 140.88 319.922 138.406 320.469 135.938L321.303 132.237C321.596 131.007 321.883 129.774 322.186 128.549C322.784 126.091 323.416 123.641 324.09 121.204C324.755 118.764 325.465 116.334 326.219 113.92C326.413 113.317 326.594 112.714 326.796 112.113C326.998 111.509 327.231 110.919 327.47 110.333C327.951 109.163 328.477 108.01 329.018 106.868C329.562 105.726 330.124 104.594 330.705 103.47C331.287 102.348 331.873 101.227 332.512 100.136C331.893 101.237 331.324 102.366 330.762 103.498C330.202 104.63 329.658 105.772 329.135 106.922C328.612 108.072 328.107 109.23 327.648 110.406C327.42 110.994 327.198 111.584 327.009 112.183C326.817 112.781 326.643 113.392 326.462 113.996C325.737 116.415 325.048 118.847 324.406 121.289C323.758 123.731 323.15 126.182 322.575 128.642C320.267 138.479 318.342 148.409 316.242 158.3L309.93 187.969C309.404 190.442 308.845 192.908 308.368 195.386C307.894 197.868 307.48 200.359 307.092 202.856C306.299 207.847 305.631 212.859 304.986 217.873Z" fill="#664BA8"/>
<path d="M304.986 217.873C305.18 217.057 305.364 216.236 305.579 215.425C305.809 214.617 306.024 213.804 306.27 213.001C306.532 212.203 306.781 211.398 307.063 210.605C307.351 209.815 307.62 209.017 307.925 208.235C309.125 205.091 310.531 202.03 312.046 199.028L313.235 196.803L314.476 194.607L315.765 192.439C316.201 191.719 316.664 191.017 317.117 190.31C317.578 189.605 318.06 188.919 318.532 188.222C319.011 187.531 319.511 186.855 320 186.174C320.505 185.5 321.031 184.845 321.546 184.182C322.075 183.527 322.621 182.889 323.163 182.25L321.655 184.267C321.173 184.954 320.679 185.63 320.207 186.324C319.741 187.021 319.259 187.704 318.804 188.409C318.355 189.116 317.892 189.815 317.454 190.527C315.688 193.374 314.02 196.28 312.507 199.269C310.961 202.239 309.568 205.288 308.293 208.385C307.967 209.157 307.677 209.942 307.369 210.722C307.066 211.501 306.801 212.296 306.511 213.084C306.226 213.871 305.978 214.671 305.711 215.466L304.986 217.873Z" fill="#664BA8"/>
<path d="M306.086 209.466C306.273 208.124 306.045 206.782 305.711 205.49C305.371 204.195 304.913 202.934 304.449 201.67C303.975 200.408 303.551 199.118 303.17 197.821C302.81 196.515 302.481 195.202 302.227 193.871C301.72 191.211 301.416 188.512 301.37 185.806C301.331 184.454 301.378 183.102 301.461 181.753L301.541 180.742C301.569 180.406 301.611 180.072 301.647 179.735C301.709 179.064 301.82 178.396 301.916 177.73C301.701 180.419 301.642 183.11 301.774 185.79C301.797 186.461 301.862 187.129 301.903 187.798C301.971 188.466 302.023 189.134 302.113 189.797C302.263 191.128 302.481 192.454 302.735 193.768C302.976 195.086 303.299 196.389 303.641 197.684C303.991 198.979 304.4 200.253 304.83 201.53C305.26 202.807 305.672 204.099 305.957 205.425C306.091 206.091 306.192 206.764 306.231 207.44C306.268 208.121 306.242 208.808 306.086 209.466Z" fill="#495E1C"/>
<path d="M309.948 187.352C312.157 182.441 314.822 177.738 317.751 173.218C319.223 170.963 320.758 168.748 322.364 166.585C323.962 164.418 325.635 162.307 327.366 160.245C325.793 162.431 324.234 164.62 322.693 166.821C321.16 169.028 319.647 171.247 318.187 173.501C316.718 175.749 315.304 178.033 313.931 180.341C312.564 182.651 311.235 184.987 309.948 187.352Z" fill="#664BA8"/>
<path d="M309.806 187.373C309.412 181.421 308.977 175.472 307.892 169.621C307.369 166.692 306.747 163.765 306.411 160.789C306.24 159.303 306.144 157.803 306.162 156.306C306.193 154.809 306.322 153.312 306.636 151.851C306.224 154.811 306.403 157.8 306.812 160.737C307.226 163.68 307.866 166.588 308.402 169.528C308.664 170.999 308.897 172.478 309.078 173.962C309.257 175.446 309.407 176.933 309.511 178.424C309.734 181.403 309.811 184.389 309.806 187.373Z" fill="#664BA8"/>
<path d="M315.203 162.449C316.044 160.206 316.92 157.974 317.855 155.77C318.785 153.561 319.779 151.377 320.849 149.227C321.929 147.083 323.089 144.98 324.361 142.944C325.625 140.903 327.005 138.937 328.482 137.049C327.168 139.054 325.907 141.087 324.705 143.151C323.509 145.221 322.377 147.321 321.31 149.461C320.235 151.595 319.225 153.76 318.22 155.933C317.225 158.106 316.228 160.284 315.203 162.449Z" fill="#664BA8"/>
<path d="M315.203 162.449C314.76 161.333 314.519 160.144 314.302 158.966C314.102 157.78 313.96 156.586 313.854 155.389C313.644 152.996 313.566 150.595 313.553 148.194C313.551 145.793 313.613 143.395 313.763 140.999C313.836 139.802 313.934 138.606 314.058 137.412C314.126 136.816 314.201 136.22 314.289 135.625C314.333 135.327 314.382 135.032 314.439 134.736C314.509 134.446 314.556 134.143 314.695 133.874C314.582 134.151 314.561 134.454 314.514 134.749C314.478 135.047 314.447 135.342 314.424 135.64C314.374 136.236 314.338 136.834 314.31 137.43C314.245 138.624 314.201 139.82 314.165 141.014C314.133 142.211 314.1 143.405 314.089 144.602C314.071 145.798 314.061 146.992 314.071 148.189C314.074 150.579 314.128 152.97 314.255 155.355C314.325 156.547 314.413 157.738 314.553 158.924C314.683 160.116 314.872 161.297 315.203 162.449Z" fill="#664BA8"/>
<path d="M369.376 287.451C367.809 287.451 366.227 286.866 365.007 286.12C363.805 285.384 362.735 284.449 361.699 283.545C360.935 282.877 360.143 282.186 359.311 281.587C357.182 280.057 354.683 279.049 352.264 278.078C351.435 277.744 350.578 277.399 349.747 277.037C348.045 276.296 346.31 275.436 344.634 274.607C338.661 271.647 332.484 268.585 326.157 270.015C323.184 270.686 319.526 270.567 318.553 269.204C318.312 268.868 318.128 268.301 318.615 267.508C321.241 263.234 320.902 257.775 320.42 254.04C319.565 247.425 317.592 240.541 314.559 233.579C314.44 233.304 314.318 233.03 314.196 232.755C312.785 229.551 311.327 226.239 311.661 222.748C311.912 220.124 313.808 217.218 315.981 216.13C317.224 215.508 318.446 215.521 319.513 216.174C320.381 216.702 321.741 216.946 322.549 216.358C322.86 216.133 323.158 215.863 323.445 215.604C323.992 215.112 324.559 214.602 325.271 214.314C326.46 213.835 327.726 214.068 329.138 214.4C333.797 215.488 338.617 216.612 343.222 218.223C344.714 218.743 346.206 219.324 347.659 219.95C351.901 221.774 356.196 224.11 361.168 227.298C365.473 230.062 369.85 233.221 372.689 237.609C375.929 242.615 376.885 248.798 377.729 254.255C377.944 255.646 378.167 257.083 378.198 258.523C378.239 260.357 377.972 262.191 377.713 263.96L375.424 279.678C375.038 282.328 374.434 285.273 372.147 286.697C371.29 287.231 370.337 287.451 369.376 287.451ZM329.469 269.132C334.756 269.132 339.879 271.67 344.862 274.141C346.532 274.97 348.263 275.825 349.951 276.56C350.777 276.92 351.632 277.262 352.456 277.596C354.903 278.58 357.431 279.598 359.612 281.168C360.464 281.779 361.264 282.478 362.039 283.154C363.059 284.045 364.113 284.965 365.276 285.677C367.113 286.801 369.809 287.542 371.876 286.254C373.973 284.949 374.543 282.134 374.911 279.601L377.201 263.882C377.454 262.131 377.719 260.323 377.68 258.531C377.649 257.125 377.429 255.705 377.216 254.33C376.38 248.925 375.432 242.799 372.254 237.886C369.469 233.582 365.144 230.461 360.889 227.731C355.939 224.555 351.671 222.235 347.454 220.422C346.012 219.803 344.53 219.225 343.051 218.707C338.472 217.106 333.665 215.985 329.019 214.9C327.695 214.592 326.514 214.369 325.465 214.791C324.839 215.042 324.331 215.501 323.792 215.985C323.494 216.254 323.186 216.532 322.852 216.772C321.852 217.5 320.278 217.241 319.242 216.612C318.092 215.913 316.96 216.213 316.209 216.589C314.214 217.588 312.401 220.372 312.171 222.794C311.85 226.151 313.282 229.401 314.665 232.543C314.787 232.82 314.908 233.095 315.028 233.369C318.081 240.375 320.065 247.306 320.928 253.97C321.42 257.783 321.762 263.364 319.05 267.775C318.773 268.223 318.747 268.591 318.967 268.899C319.703 269.927 322.94 270.204 326.035 269.505C327.193 269.251 328.335 269.132 329.469 269.132Z" fill="#A98FFF"/>
<path d="M316.555 216.251C313.362 214.308 309.448 218.908 309.094 222.63C308.739 226.352 310.477 229.905 311.971 233.334C314.825 239.882 316.936 246.782 317.853 253.865C318.454 258.506 318.462 263.516 316.011 267.502C314.579 269.83 319.158 270.553 323.276 269.62C331.497 267.761 339.298 273.295 347.027 276.657C350.29 278.077 353.753 279.157 356.641 281.236C358.607 282.65 360.254 284.492 362.321 285.756C364.387 287.02 367.138 287.613 369.192 286.333C371.396 284.961 371.974 282.065 372.346 279.496C373.111 274.256 373.872 269.017 374.636 263.777C374.898 261.987 375.157 260.19 375.118 258.382C375.087 256.963 374.869 255.554 374.652 254.148C373.763 248.408 372.805 242.477 369.65 237.603C366.848 233.272 362.549 230.154 358.208 227.37C353.901 224.606 349.438 222.06 344.737 220.04C343.284 219.416 341.81 218.841 340.316 218.32C335.729 216.717 330.989 215.608 326.257 214.505C325.032 214.22 323.714 213.938 322.546 214.409C321.507 214.826 320.785 215.764 319.878 216.422C318.974 217.082 317.511 216.833 316.555 216.251Z" fill="#A98FFF"/>
<path d="M321.189 264.973C322.948 263.882 324.872 263.061 326.866 262.507C328.861 261.945 330.93 261.647 333.002 261.577C335.077 261.52 337.162 261.691 339.195 262.124C341.233 262.543 343.201 263.268 345.082 264.149C348.848 265.913 352.298 268.228 355.978 270.044C357.817 270.953 359.731 271.712 361.723 272.196C363.709 272.678 365.786 272.854 367.83 272.561L367.84 272.613C366.827 272.833 365.786 272.919 364.745 272.908C363.704 272.885 362.665 272.758 361.645 272.553C359.601 272.134 357.638 271.391 355.755 270.515C351.989 268.733 348.609 266.314 344.908 264.524C343.062 263.628 341.135 262.893 339.127 262.452C337.125 262.002 335.066 261.805 333.012 261.836C330.958 261.872 328.902 262.134 326.91 262.66C324.919 263.178 322.992 263.962 321.22 265.022L321.189 264.973Z" fill="#664BA8"/>
<path d="M321.484 264.869C324.688 263.201 327.835 261.409 330.777 259.318C333.724 257.239 336.459 254.869 338.85 252.17C340.054 250.831 341.209 249.443 342.38 248.062C343.546 246.682 344.729 245.314 345.915 243.952C348.306 241.24 350.694 238.526 353.16 235.882L353.198 235.915C350.953 238.751 348.624 241.517 346.304 244.289C345.133 245.667 343.96 247.039 342.769 248.399C341.577 249.759 340.393 251.126 339.158 252.452C336.713 255.136 333.913 257.487 330.927 259.531C327.933 261.574 324.745 263.304 321.51 264.913L321.484 264.869Z" fill="#664BA8"/>
<path d="M321.194 264.97C322.16 264.631 323.046 264.084 323.779 263.372C324.525 262.673 325.126 261.833 325.628 260.948C326.631 259.163 327.167 257.158 327.49 255.149C328.102 251.098 327.573 246.951 326.444 243.038C325.299 239.109 323.517 235.405 321.699 231.738C320.798 229.896 319.85 228.075 318.946 226.229C318.498 225.304 318.06 224.361 317.757 223.367C317.464 222.375 317.304 221.321 317.464 220.295L317.516 220.3C317.439 221.323 317.635 222.341 317.982 223.294C318.319 224.252 318.785 225.164 319.267 226.065C320.236 227.873 321.207 229.684 322.16 231.504C324.046 235.154 325.742 238.943 326.843 242.926C327.395 244.915 327.778 246.954 327.954 249.013C328.042 250.041 328.063 251.077 328.04 252.108C328.003 253.141 327.902 254.17 327.744 255.19C327.563 256.208 327.327 257.213 327.011 258.197C326.693 259.179 326.281 260.134 325.76 261.028C325.237 261.916 324.613 262.755 323.846 263.45C323.093 264.157 322.183 264.695 321.207 265.019L321.194 264.97Z" fill="#664BA8"/>
<path d="M321.189 264.972C322.756 264.05 324.178 262.893 325.403 261.556C326.633 260.222 327.669 258.723 328.563 257.145C330.355 253.988 331.601 250.559 332.847 247.143C333.466 245.431 334.1 243.727 334.546 241.981C335.012 240.241 335.193 238.451 335.307 236.635C335.444 234.827 335.512 232.989 335.879 231.183C336.063 230.282 336.32 229.391 336.7 228.552C337.084 227.715 337.591 226.933 338.223 226.273L338.262 226.306C337.099 227.718 336.509 229.477 336.229 231.248C335.947 233.03 335.903 234.846 335.82 236.666C335.773 237.578 335.708 238.492 335.592 239.404C335.481 240.318 335.286 241.225 335.045 242.111C334.561 243.887 333.888 245.589 333.243 247.288C331.945 250.683 330.645 254.115 328.791 257.275C327.861 258.847 326.783 260.342 325.519 261.662C324.258 262.983 322.805 264.123 321.215 265.017L321.189 264.972Z" fill="#664BA8"/>
<path d="M321.481 264.869C324.819 262.88 328.057 260.717 331.53 258.941C333.265 258.055 335.066 257.28 336.928 256.685C338.787 256.084 340.714 255.677 342.657 255.462C346.544 255.014 350.45 255.123 354.312 254.908C356.244 254.809 358.168 254.594 360.046 254.157C361.921 253.719 363.745 253.017 365.397 251.994L365.426 252.038C364.638 252.611 363.784 253.095 362.895 253.507C362.004 253.913 361.077 254.237 360.134 254.501C358.243 255.024 356.291 255.265 354.346 255.418C350.448 255.706 346.555 255.496 342.703 255.884C340.779 256.071 338.881 256.446 337.031 257.014C335.182 257.578 333.39 258.321 331.649 259.179C328.166 260.886 324.884 262.989 321.509 264.918L321.481 264.869Z" fill="#664BA8"/>
<path d="M284.295 90.6779C280.796 87.0467 277.256 84.5137 273.865 82.7525C280.892 82.2941 286.499 78.7924 287.509 73.6098C288.825 66.8758 281.892 59.8543 272.026 57.9274C262.161 56.0004 253.096 59.8984 251.78 66.6349C250.908 71.1001 253.663 75.6896 258.491 78.8364C257.535 78.8079 256.657 78.8131 255.878 78.8287C246.075 79.0411 223.925 87.702 224.262 109.681C224.598 131.66 238.623 140.181 243.202 141.882C247.779 143.584 267.623 152.799 284.192 131.595C300.76 110.39 284.295 90.6779 284.295 90.6779Z" fill="#916BC3"/>
<path d="M282.25 134.317L281.879 133.954C291.944 123.716 296.109 113.959 294.254 104.954C291.182 90.0381 272.392 82.2059 272.203 82.1282L270.864 81.5817L272.309 81.6309C281.281 81.9314 287.393 79.7118 289.527 75.3761C291.195 71.9884 290.263 67.4921 287.09 63.6408C283.956 59.8361 277.816 56.0677 270.825 57.9635L270.69 57.4637C277.919 55.5004 284.259 59.388 287.492 63.3119C290.797 67.3212 291.755 72.0324 289.994 75.6066C287.867 79.9216 282.05 82.2318 273.568 82.1774C275.308 82.9985 278.766 84.7804 282.384 87.4792C287.127 91.0171 293.125 96.9042 294.762 104.85C296.653 114.032 292.444 123.946 282.25 134.317Z" fill="#916BC3"/>
<path d="M283.869 108.331L283.379 108.165C285.648 101.436 276.234 95.6918 276.138 95.6348L276.404 95.1919C276.503 95.2515 286.272 101.208 283.869 108.331Z" fill="#5D405F"/>
<path d="M279.082 106.852L278.564 106.824C278.789 102.677 274.635 101.09 274.456 101.022L274.635 100.535C274.684 100.556 279.325 102.32 279.082 106.852Z" fill="#5D405F"/>
<path d="M274.65 81.2113C271.314 80.5146 270.112 80.2452 266.875 79.0668C263.637 77.8884 261.373 76.9378 258.006 77.4739C257.851 77.4973 257.693 77.5283 257.558 77.6242C257.232 77.8624 257.178 78.4374 257.351 78.8415C257.522 79.2455 257.825 79.5848 258.183 79.7402C261.368 81.131 262.249 81.1673 265.095 81.6413C266.144 81.8148 267.193 81.9909 268.245 82.1644C270.705 82.5737 273.163 82.9829 275.624 83.3921C276.012 83.4568 276.416 83.5216 276.794 83.3869C277.172 83.2522 277.154 81.7345 274.65 81.2113Z" fill="#A2A1FF"/>
<path d="M78.7141 232.794C78.2816 232.864 77.8335 232.921 77.3725 232.97C73.8035 234.003 68.4422 233.824 64.3111 232.791L56.7095 270.147L70.7965 270.02L78.7141 232.794Z" fill="#D5CCFF"/>
<path d="M56.3936 270.408L64.1118 232.475L64.3733 232.54C68.6546 233.612 73.9693 233.685 77.3 232.721L77.3441 232.713C77.8103 232.664 78.2557 232.605 78.6701 232.537L79.0431 232.478L71.0063 270.279L56.3936 270.408ZM64.5132 233.107L57.0307 269.885L70.5919 269.763L78.3853 233.104C78.077 233.149 77.7559 233.19 77.4269 233.224C74.0289 234.203 68.8774 234.153 64.5132 233.107Z" fill="#A4B4FF"/>
<path d="M230.615 194.076C230.615 194.076 231.819 193.9 232.195 212.341C232.933 248.419 232.571 263.625 232.832 269.952H312.039C311.55 262.019 313.029 262.962 306.523 243.804C310.504 258.285 329.83 251.405 328.4 246.469C319.589 216.06 307.331 182.566 290.726 169.916C271.058 154.931 262.055 157.267 262.055 157.267C262.055 157.267 246.569 168.707 244.324 157.71C243.482 153.589 239.463 154.695 226.469 147.961C211.55 140.23 210.483 114.521 202.669 118.645C197.621 121.31 185.694 121.108 185.694 121.108C176.596 127.751 195.238 163.283 201.167 171.043C218.473 193.695 230.615 194.076 230.615 194.076Z" fill="#A2A1FF"/>
<path d="M329.13 269.952L325.046 250.722C320.324 253.244 311.705 253.894 307.737 247.158C308.371 249.25 309.001 251.416 309.578 253.555C310.827 257.538 311.433 260.04 311.552 262.019C312.173 265.389 312.425 268.227 312.041 269.952H329.13Z" fill="#D5CCFF"/>
<path d="M329.45 270.211H311.716L311.786 269.895C312.133 268.341 311.967 265.707 311.296 262.066L311.294 262.035C311.182 260.157 310.612 257.722 309.33 253.633C308.792 251.639 308.175 249.489 307.489 247.233L306.857 245.156L307.958 247.026C311.83 253.599 320.208 253.011 324.92 250.494L325.223 250.331L329.45 270.211ZM312.353 269.693H328.81L324.863 251.108C320.284 253.402 312.7 253.944 308.46 248.66C308.96 250.349 309.418 251.967 309.83 253.488C311.117 257.598 311.695 260.066 311.812 261.988C312.449 265.459 312.63 268.049 312.353 269.693Z" fill="#92A8FF"/>
<path opacity="0.84" d="M326.542 256.547L325.304 250.722C320.582 253.245 311.963 253.895 307.995 247.158C308.629 249.246 309.256 251.406 309.831 253.54C314.05 258.533 321.561 258.393 326.542 256.547Z" fill="#AFB6FF"/>
<path d="M187.613 41.0974C187.613 41.0974 189.232 55.4538 185.994 60.1029C182.759 64.7519 184.173 72.0324 184.173 72.0324C184.173 72.0324 183.912 124.586 186.795 128.225C189.677 131.864 193.143 133.356 195.497 132.69C199.478 131.564 203.788 125.816 202.573 117.728C201.361 109.639 191.451 71.2243 191.451 71.2243C191.451 71.2243 194.686 66.5753 194.686 63.1358C194.686 59.6962 191.653 40.6934 190.643 39.2767C189.636 37.8625 187.613 41.0974 187.613 41.0974Z" fill="#D5CCFF"/>
<path d="M194.345 133.102C191.897 133.102 188.934 131.338 186.595 128.386C183.7 124.731 183.907 74.5447 183.917 72.0557C183.814 71.4989 182.589 64.5499 185.785 59.9553C188.926 55.4383 187.372 41.2684 187.357 41.126L187.346 41.0353L187.393 40.9576C187.538 40.7271 188.841 38.694 189.988 38.6577C190.232 38.6525 190.571 38.7251 190.856 39.1239C191.98 40.696 194.948 60.0641 194.948 63.1332C194.948 66.3733 192.216 70.5587 191.734 71.271C192.332 73.5942 201.661 109.896 202.829 117.686C204.003 125.506 199.973 131.69 195.567 132.936C195.181 133.048 194.769 133.102 194.345 133.102ZM187.882 41.1597C188.028 42.5039 189.364 55.718 186.209 60.2505C183.075 64.7545 184.417 71.9107 184.43 71.9832L184.435 72.0091V72.035C184.345 90.1805 184.764 125.241 186.999 128.064C189.618 131.367 193.006 133.125 195.427 132.442C198.944 131.447 203.567 126.093 202.319 117.767C201.123 109.784 191.304 71.675 191.203 71.2891L191.174 71.1751L191.242 71.0767C191.273 71.0301 194.43 66.4536 194.43 63.1358C194.43 59.7092 191.392 40.766 190.434 39.427C190.268 39.1964 190.107 39.1757 190.004 39.1783C189.369 39.199 188.388 40.3723 187.882 41.1597Z" fill="#94A9FF"/>
<path d="M243.52 145.363C244.473 145.425 245.395 145.443 246.292 145.425C247.048 149.338 247.462 155.106 244.411 158.339C246.83 166.919 258.498 159.582 261.342 157.637C260.205 155.337 257.483 149.157 257.553 142.781C269.141 137.134 273.119 124.438 273.119 124.438C256.628 120.273 251.697 97.1499 251.697 97.1499C240.526 113.368 232.119 112.226 232.119 112.226C232.119 112.226 231.257 144.547 243.52 145.363Z" fill="#D7D3FF"/>
<path d="M267.219 118.962C267.357 118.421 265.416 117.461 262.885 116.817C260.354 116.173 258.19 116.089 258.053 116.629C257.915 117.17 259.856 118.13 262.387 118.774C264.918 119.419 267.082 119.502 267.219 118.962Z" fill="#534E95"/>
<path d="M242.21 112.533C242.348 111.992 240.408 111.032 237.876 110.388C235.345 109.744 233.182 109.66 233.044 110.201C232.906 110.741 234.847 111.702 237.378 112.346C239.909 112.99 242.073 113.074 242.21 112.533Z" fill="#534E95"/>
<path d="M238.538 116.834C238.837 115.397 238.409 114.093 237.581 113.921C236.754 113.748 235.84 114.773 235.541 116.21C235.242 117.647 235.67 118.951 236.498 119.124C237.325 119.296 238.239 118.271 238.538 116.834Z" fill="#534E95"/>
<path d="M262.5 122.93C262.799 121.493 262.371 120.188 261.543 120.016C260.716 119.844 259.802 120.869 259.503 122.305C259.204 123.742 259.632 125.047 260.46 125.219C261.287 125.391 262.201 124.366 262.5 122.93Z" fill="#534E95"/>
<path d="M253.063 116.969C250.885 116.415 248.706 115.86 246.526 115.306C246.215 115.228 245.904 115.148 245.596 115.07C245.111 114.946 244.904 115.697 245.389 115.819C247.567 116.373 249.745 116.928 251.926 117.482C252.237 117.559 252.547 117.64 252.856 117.717C253.34 117.842 253.547 117.093 253.063 116.969Z" fill="#433D65"/>
<path d="M255.068 130.906C256.694 131.32 258.321 131.735 259.948 132.146C260.683 132.333 261.421 132.522 262.157 132.708C263.423 133.03 264.734 132.962 265.941 132.449C267.404 131.828 268.549 130.621 269.106 129.132C269.334 128.526 269.461 127.873 269.619 127.246C270.098 125.363 270.577 123.483 271.056 121.6C271.341 120.481 271.382 119.341 271.033 118.23C270.561 116.733 269.479 115.446 268.062 114.76C267.386 114.431 266.658 114.273 265.936 114.089C264.907 113.827 263.879 113.566 262.853 113.304C261.955 113.076 261.056 112.846 260.157 112.618C259.163 112.364 258.179 112.25 257.158 112.455C255.622 112.765 254.25 113.734 253.421 115.06C252.962 115.791 252.75 116.593 252.543 117.417C252.048 119.362 251.553 121.307 251.059 123.25C250.836 124.12 250.652 124.982 250.753 125.891C250.927 127.464 251.722 128.911 252.978 129.88C253.597 130.364 254.309 130.704 255.068 130.906C255.552 131.033 255.759 130.284 255.275 130.157C253.812 129.771 252.605 128.777 251.957 127.407C251.447 126.327 251.385 125.117 251.678 123.967C252.118 122.232 252.561 120.499 253.001 118.766C253.157 118.153 253.312 117.536 253.47 116.922C253.807 115.627 254.615 114.508 255.77 113.822C256.92 113.138 258.287 112.954 259.582 113.278C260.188 113.428 260.794 113.586 261.4 113.742C263.144 114.185 264.887 114.628 266.63 115.073C267.769 115.363 268.787 115.98 269.502 116.928C270.416 118.142 270.727 119.709 270.364 121.18C269.986 122.711 269.587 124.234 269.199 125.762C269 126.547 268.8 127.334 268.601 128.119C268.339 129.147 267.883 130.064 267.098 130.8C266.018 131.81 264.503 132.294 263.04 132.102C262.444 132.025 261.849 131.833 261.266 131.685C259.406 131.211 257.549 130.74 255.69 130.266C255.552 130.232 255.415 130.196 255.278 130.162C254.788 130.033 254.581 130.781 255.068 130.906Z" fill="#433D65"/>
<path d="M229.963 124.516C231.589 124.93 233.216 125.345 234.842 125.757C235.578 125.943 236.316 126.132 237.051 126.319C238.318 126.64 239.628 126.573 240.835 126.06C242.299 125.438 243.444 124.231 244 122.742C244.228 122.136 244.355 121.483 244.513 120.856C244.992 118.973 245.471 117.093 245.951 115.21C246.236 114.091 246.277 112.952 245.927 111.841C245.456 110.344 244.373 109.056 242.957 108.37C242.281 108.041 241.553 107.883 240.83 107.699C239.802 107.438 238.776 107.176 237.748 106.914C236.849 106.687 235.951 106.456 235.052 106.228C234.057 105.974 233.073 105.86 232.053 106.065C230.517 106.376 229.144 107.344 228.315 108.67C227.857 109.401 227.644 110.204 227.437 111.027C226.943 112.972 226.448 114.918 225.953 116.86C225.73 117.73 225.547 118.593 225.648 119.502C225.821 121.074 226.616 122.522 227.872 123.49C228.494 123.975 229.204 124.317 229.963 124.516C230.447 124.643 230.654 123.894 230.17 123.768C228.706 123.382 227.499 122.387 226.852 121.017C226.342 119.937 226.28 118.727 226.572 117.577C227.013 115.842 227.455 114.109 227.896 112.377C228.051 111.763 228.206 111.147 228.364 110.533C228.701 109.238 229.509 108.119 230.664 107.432C231.814 106.749 233.182 106.565 234.477 106.889C235.083 107.039 235.689 107.197 236.295 107.352C238.038 107.795 239.781 108.238 241.524 108.683C242.664 108.974 243.682 109.59 244.397 110.538C245.311 111.753 245.622 113.32 245.259 114.791C244.881 116.321 244.482 117.844 244.094 119.372C243.894 120.157 243.695 120.944 243.495 121.729C243.234 122.757 242.778 123.674 241.993 124.41C240.913 125.42 239.398 125.904 237.935 125.713C237.339 125.635 236.743 125.443 236.16 125.296C234.301 124.822 232.444 124.35 230.584 123.876C230.447 123.843 230.31 123.806 230.172 123.773C229.685 123.646 229.478 124.394 229.963 124.516Z" fill="#433D65"/>
<path d="M249.387 118.51C249.387 118.51 248.902 126.474 246.46 127.816C244.015 129.155 242.66 127.023 244.033 124.156C245.406 121.289 247.993 117.87 247.993 117.87L249.387 118.51Z" fill="#A6B8FF"/>
<path d="M240.211 131.331L252.374 134.294C252.374 134.294 243 143.903 240.211 131.331Z" fill="#A6B8FF"/>
<path opacity="0.84" d="M246.553 145.617C246.83 146.521 248.402 151.103 252.551 154.159C257.985 158.158 261.79 158.233 261.79 158.233C261.79 158.233 258.086 152.258 257.835 142.957C254.667 144.503 250.932 145.524 246.553 145.617Z" fill="#ACB3FF"/>
<path opacity="0.84" d="M243.711 157.831C243.711 157.831 237.044 171.162 231.027 193.555C230.566 195.267 221.229 190.38 221.229 190.38C221.229 190.38 225.904 178.758 229.587 172.553C235.811 162.058 243.711 157.831 243.711 157.831Z" fill="#A7AEFF"/>
<path d="M156.005 121.367C156.005 121.367 162.948 110.468 165.893 105.361C168.838 100.253 170.519 70.484 170.519 70.484C170.519 70.484 166.89 62.5741 167.458 58.9403C167.999 55.4775 169.071 43.3822 171.135 42.5172C175.357 40.7482 177.73 50.5876 178.473 53.0248C181.956 64.4726 174.591 62.9911 177.885 71.4293C179.657 75.967 180.592 98.7331 177.535 116.05C176.533 121.732 163.676 141.401 163.676 141.401C163.676 141.401 152.731 138.578 156.005 121.367Z" fill="#D5CCFF"/>
<path d="M163.788 141.698L163.61 141.652C163.496 141.621 160.763 140.89 158.411 138.002C156.254 135.353 154.042 130.307 155.752 121.32L155.762 121.271L155.788 121.23C155.858 121.121 162.763 110.276 165.671 105.231C168.487 100.346 170.17 72.0765 170.261 70.5329C169.903 69.7429 166.653 62.4443 167.207 58.9012C167.308 58.2537 167.43 57.2928 167.57 56.1765C168.409 49.528 169.367 42.9779 171.04 42.2786C171.809 41.9549 172.574 41.9704 173.304 42.3226C176.049 43.6409 177.702 49.3985 178.494 52.1672C178.582 52.4754 178.66 52.7422 178.722 52.952C180.579 59.0566 179.388 61.5689 178.336 63.7834C177.406 65.7414 176.604 67.4327 178.126 71.3384C179.864 75.7906 180.937 98.264 177.79 116.099C176.79 121.768 164.418 140.743 163.892 141.545L163.788 141.698ZM156.249 121.465C154.596 130.206 156.718 135.091 158.792 137.65C160.706 140.012 162.931 140.885 163.563 141.097C164.801 139.191 176.342 121.299 177.277 116.006C180.297 98.8934 179.383 75.9874 177.642 71.5249C176.036 67.412 176.925 65.542 177.865 63.5606C178.875 61.4316 180.022 59.0152 178.222 53.1022C178.158 52.8898 178.08 52.6205 177.992 52.3097C177.28 49.8259 175.612 44.0087 173.073 42.7914C172.472 42.5039 171.869 42.4936 171.234 42.7603C169.699 43.4053 168.603 52.0766 168.077 56.2465C167.937 57.3653 167.816 58.3314 167.712 58.9841C167.163 62.4987 170.716 70.2998 170.753 70.3801L170.779 70.4397L170.776 70.5044C170.706 71.7217 169.056 100.393 166.114 105.495C163.296 110.385 156.725 120.717 156.249 121.465Z" fill="#9FB0FF"/>
<path d="M171.259 130.994C171.21 130.611 170.951 130.362 170.542 130.199C167.032 136.166 163.497 141.577 163.497 141.577C163.497 141.577 152.554 138.754 155.828 121.543C155.828 121.543 156.509 120.476 157.532 118.852C156.38 117.124 147.905 123.786 141.365 133.315C134.877 142.765 125.732 149.743 119.467 156.068C107.732 167.912 101.736 155.625 101.736 155.625C101.736 155.625 111.42 148.849 89.3142 159.929C80.8501 164.172 62.3005 198.539 58.0995 227.844C57.4494 232.382 72.5258 234.71 78.5501 231.916L70.4564 269.986L152.01 270.129C152.008 255.969 133.544 181.81 133.544 181.81C133.544 181.81 173.417 147.718 171.259 130.994Z" fill="#B1C7FF"/>
<path opacity="0.6" d="M89.434 126.969C90.2447 126.969 91.0191 126.824 91.7417 126.57C94.2463 136.166 99.5842 140.416 105.95 142.242C105.735 146.787 104.003 151.087 102.811 153.542C106.274 152.374 102.068 155.319 102.068 155.319C102.068 155.319 107.978 167.427 119.551 156.005C119.602 155.933 119.628 155.891 119.628 155.891C116.013 153.032 116.43 147.339 117.225 143.54C118.696 143.545 120.167 143.516 121.625 143.48C135.22 143.13 134.238 106.813 134.238 106.813C134.238 106.813 136.002 82.3586 101.11 81.3044C101.11 81.3044 82.9435 94.8967 86.6446 113.62C84.1867 114.695 82.4644 117.147 82.4644 120.002C82.4695 123.85 85.5879 126.969 89.434 126.969Z" fill="#C1BCFF"/>
<path opacity="0.84" d="M106.272 142.177C105.43 148.901 101.929 155.86 101.929 155.86C101.929 155.86 106.021 155.001 111.455 151.315C115.14 148.816 116.847 144.928 117.388 143.452C113.573 143.434 109.769 143.169 106.272 142.177Z" fill="#ACB3FF"/>
<path d="M88.8565 79.3155C88.8565 79.3155 73.0704 77.0933 75.0725 95.7671C77.0746 114.441 78.4084 122.001 78.4084 122.001C78.4084 122.001 80.4105 127.114 85.3004 124.446C90.1903 121.779 88.8565 112.664 88.8565 112.664C88.8565 112.664 95.9712 107.995 95.9712 93.5449C95.9712 79.0953 117.758 97.3237 129.32 98.2147C140.882 99.1057 148.691 97.4351 153.031 91.1155C155.394 87.676 155.223 86.6555 155.388 81.0974C155.554 75.5393 152.506 64.6069 140.69 67.7382C135.622 69.0824 132.879 73.0943 123.985 68.6473C115.091 64.2003 95.303 59.0824 88.8565 79.3155Z" fill="#534E95"/>
<path d="M89.6442 79.2016L89.1392 79.0876C91.0584 70.6546 94.4901 65.0887 99.3386 62.5401C106.829 58.6033 116.389 62.4106 123.369 65.1897L123.547 65.2622C128.587 67.2694 132.967 66.1635 136.831 65.1871C141.452 64.019 145.441 63.0115 148.782 67.9092L148.354 68.2018C145.215 63.6046 141.571 64.524 136.958 65.6895C133.019 66.6841 128.551 67.8133 123.356 65.7439L123.177 65.6714C116.29 62.9286 106.857 59.1731 99.5795 62.9985C94.8708 65.472 91.5271 70.9239 89.6442 79.2016Z" fill="#534E95"/>
<path d="M332.778 270.116H60.0874V270.634H332.778V270.116Z" fill="#90A7FF"/>
<path opacity="0.84" d="M156.004 121.367C158.884 129.512 161.855 133.747 166.797 135.987C167.75 136.42 164.23 141.403 164.23 141.403C164.23 141.403 159.154 139.849 157.361 135.99C154.336 129.463 156.004 121.367 156.004 121.367Z" fill="#AFB6FF"/>
<path opacity="0.84" d="M62.7832 231.74C72.1641 233.796 73.2209 233.123 78.4682 231.74C79.4783 231.473 77.0256 239.103 77.0256 239.103C77.0256 239.103 73.9616 239.305 70.1362 237.44C63.6741 234.288 62.7832 231.74 62.7832 231.74Z" fill="#AFB6FF"/>
<path opacity="0.84" d="M122.187 153.589L120.952 154.873L133.078 181.864L138.4 177.274L122.187 153.589Z" fill="#A9B5FF"/>
<path opacity="0.84" d="M82.9878 231.732C90.2035 215.192 101.043 188.979 92.8453 166.531C92.8453 166.531 102.467 170.688 98.3103 204.185C94.9458 231.289 82.9878 231.732 82.9878 231.732Z" fill="#A9B5FF"/>
<path d="M231.939 205.573C230.623 192.154 233.928 179.763 236.932 171.732C240.185 163.032 243.801 157.422 243.837 157.368L244.272 157.65C244.236 157.704 240.646 163.275 237.414 171.926C234.433 179.903 231.151 192.206 232.457 205.521L231.939 205.573Z" fill="#AA89DA"/>
<path d="M307.079 246.49C303.134 230.444 276.408 189.53 276.139 189.118L276.571 188.833C276.841 189.245 303.613 230.235 307.581 246.365L307.079 246.49Z" fill="#AA89DA"/>
<path d="M196.779 139.271C192.734 139.271 189.299 136.503 189.131 136.363L189.46 135.961C189.506 136 194.184 139.766 198.841 138.479C201.871 137.64 204.254 134.871 205.919 130.25L206.406 130.427C204.681 135.218 202.179 138.096 198.975 138.981C198.235 139.183 197.497 139.271 196.779 139.271Z" fill="#AA89DA"/>
<path d="M318.442 247.166C316.738 247.166 314.756 246.544 312.653 244.684L312.995 244.296C318.903 249.522 323.601 244.529 323.798 244.314L324.181 244.664C324.145 244.7 321.837 247.166 318.442 247.166Z" fill="#AA89DA"/>
<path d="M249.141 267.3C240.55 264.368 243.329 245.262 243.453 244.449L243.966 244.526C243.937 244.721 241.125 264.016 249.309 266.811L249.141 267.3Z" fill="#AA89DA"/>
<path d="M138.8 203.734C133.755 177.298 120.859 155.226 120.729 155.006L121.175 154.741C121.304 154.962 134.247 177.109 139.308 203.636L138.8 203.734Z" fill="#AB89CE"/>
<path d="M70.6072 233.322C66.932 233.322 64.8082 232.7 64.772 232.69L64.9222 232.195C64.9818 232.213 71.0061 233.969 80.4311 231.449C87.4603 229.569 92.6559 202.56 92.7077 202.288L93.2153 202.384C93.003 203.511 87.9058 229.986 80.5632 231.949C76.5953 233.008 73.2128 233.322 70.6072 233.322Z" fill="#AB89CE"/>
<path d="M95.5872 183.589L95.0899 183.441C98.5683 171.851 87.5997 161.291 87.4883 161.185L87.8457 160.81C87.9571 160.916 99.1536 171.695 95.5872 183.589Z" fill="#AB89CE"/>
<path d="M161.914 146.145C157.86 145.876 154.711 144.394 152.548 141.745C148.329 136.572 149.357 128.611 149.368 128.531L149.88 128.6C149.87 128.678 148.873 136.425 152.95 141.421C155.016 143.954 158.044 145.371 161.947 145.63L161.914 146.145Z" fill="#AB89CE"/>
<path d="M72.5008 228.442C72.1563 228.442 71.8067 228.432 71.4493 228.414C66.7925 228.176 62.7236 226.451 62.6821 226.433L62.8867 225.956C62.9256 225.974 66.922 227.665 71.4881 227.896C77.5565 228.201 81.7057 225.915 83.8217 221.102L84.2957 221.31C82.2366 225.992 78.1703 228.442 72.5008 228.442Z" fill="#AB89CE"/>
<path d="M132.726 265.07C131.856 265.07 130.942 265.026 129.981 264.938L130.028 264.423C136.114 264.985 140.292 263.739 142.449 260.716C147.153 254.13 141.276 241.061 139.344 236.767C138.997 235.992 138.841 235.645 138.803 235.482L139.305 235.36C139.336 235.485 139.548 235.956 139.818 236.554C141.778 240.916 147.748 254.187 142.871 261.017C140.947 263.713 137.541 265.07 132.726 265.07Z" fill="#AB89CE"/>
<path d="M115.078 113.82C115.078 113.82 115.611 122.633 118.318 124.115C121.022 125.596 122.521 123.237 121.004 120.067C119.483 116.896 116.621 113.11 116.621 113.11L115.078 113.82Z" fill="#A6B8FF"/>
<path d="M125.231 128.005L111.771 131.284C111.774 131.284 122.147 141.916 125.231 128.005Z" fill="#A6B8FF"/>
<path d="M100.69 114.098C103.492 113.385 105.64 112.322 105.487 111.723C105.335 111.124 102.94 111.217 100.139 111.929C97.337 112.642 95.1894 113.706 95.3418 114.304C95.4942 114.903 97.8889 114.811 100.69 114.098Z" fill="#534E95"/>
<path d="M128.36 106.989C131.161 106.276 133.309 105.212 133.157 104.614C133.004 104.015 130.61 104.107 127.808 104.82C125.006 105.533 122.859 106.596 123.011 107.195C123.164 107.794 125.558 107.702 128.36 106.989Z" fill="#534E95"/>
<path d="M129.337 114.512C130.251 114.322 130.724 112.879 130.393 111.29C130.062 109.7 129.052 108.566 128.138 108.757C127.223 108.947 126.75 110.39 127.081 111.979C127.412 113.569 128.422 114.703 129.337 114.512Z" fill="#534E95"/>
<path d="M102.821 121.257C103.736 121.066 104.209 119.623 103.878 118.034C103.547 116.445 102.537 115.31 101.623 115.501C100.708 115.691 100.235 117.134 100.566 118.724C100.897 120.313 101.907 121.447 102.821 121.257Z" fill="#534E95"/>
<path d="M118.248 109.225C115.819 109.947 113.389 110.673 110.96 111.395C110.62 111.496 110.279 111.597 109.939 111.698C109.46 111.841 109.665 112.592 110.147 112.447C112.576 111.724 115.005 110.999 117.435 110.276C117.774 110.175 118.116 110.074 118.455 109.973C118.932 109.831 118.727 109.08 118.248 109.225Z" fill="#433D65"/>
<path d="M126.264 117.544C129.274 116.648 132.283 115.752 135.296 114.856C136.067 114.625 136.805 114.343 137.458 113.856C138.626 112.983 139.455 111.675 139.693 110.232C139.872 109.16 139.696 108.158 139.39 107.132C139.129 106.252 138.865 105.368 138.603 104.488C138.251 103.307 137.616 102.255 136.64 101.483C135.49 100.574 134.003 100.108 132.537 100.258C131.921 100.32 131.343 100.499 130.755 100.675C129.945 100.916 129.136 101.157 128.326 101.398C126.495 101.942 124.666 102.488 122.835 103.032C122.301 103.19 121.763 103.335 121.253 103.566C119.906 104.177 118.862 105.327 118.326 106.694C117.852 107.901 117.839 109.225 118.204 110.46C118.458 111.32 118.717 112.18 118.971 113.037C119.271 114.05 119.626 114.993 120.328 115.809C121.284 116.922 122.667 117.609 124.122 117.751C124.84 117.826 125.57 117.743 126.264 117.544C126.743 117.407 126.539 116.656 126.057 116.795C123.428 117.554 120.685 116.05 119.898 113.434C119.657 112.631 119.419 111.828 119.181 111.027C118.919 110.144 118.66 109.3 118.73 108.36C118.831 107.003 119.528 105.718 120.592 104.874C121.188 104.402 121.872 104.13 122.589 103.918C124.208 103.436 125.824 102.954 127.443 102.473C128.826 102.061 130.209 101.644 131.594 101.237C134.019 100.52 136.702 101.703 137.652 104.094C137.932 104.799 138.108 105.555 138.323 106.28C138.551 107.047 138.859 107.839 138.96 108.637C139.271 111.092 137.694 113.33 135.36 114.027C132.348 114.928 129.336 115.822 126.324 116.718C126.233 116.744 126.145 116.772 126.054 116.798C125.578 116.938 125.782 117.686 126.264 117.544Z" fill="#433D65"/>
<path d="M98.3287 125.863C101.338 124.967 104.348 124.071 107.36 123.175C108.132 122.944 108.87 122.662 109.523 122.175C110.691 121.302 111.52 119.994 111.758 118.551C111.937 117.479 111.76 116.477 111.455 115.451C111.193 114.571 110.929 113.687 110.667 112.807C110.315 111.626 109.681 110.574 108.704 109.802C107.554 108.893 106.068 108.427 104.602 108.577C103.985 108.639 103.408 108.818 102.82 108.994C102.009 109.235 101.201 109.476 100.39 109.717C98.5592 110.261 96.7306 110.807 94.8995 111.351C94.3659 111.509 93.8272 111.654 93.317 111.885C91.9702 112.496 90.9264 113.646 90.3903 115.013C89.9163 116.22 89.9034 117.544 90.2686 118.779C90.5224 119.639 90.7814 120.499 91.0352 121.356C91.3356 122.369 91.6905 123.312 92.3923 124.128C93.3481 125.241 94.7311 125.928 96.1867 126.07C96.9041 126.145 97.6345 126.065 98.3287 125.863C98.8078 125.726 98.6032 124.975 98.1215 125.114C95.4926 125.873 92.7498 124.369 91.9624 121.753C91.7215 120.95 91.4833 120.147 91.245 119.347C90.9834 118.463 90.7244 117.619 90.7943 116.679C90.8953 115.322 91.592 114.037 92.6565 113.193C93.2522 112.721 93.936 112.449 94.6534 112.237C96.2722 111.755 97.8884 111.274 99.5071 110.792C100.89 110.38 102.273 109.963 103.659 109.556C106.083 108.839 108.766 110.023 109.717 112.413C109.997 113.118 110.173 113.874 110.388 114.599C110.616 115.366 110.924 116.158 111.025 116.956C111.336 119.411 109.758 121.649 107.425 122.346C104.413 123.247 101.4 124.141 98.3882 125.037C98.2976 125.063 98.2095 125.091 98.1189 125.117C97.6449 125.257 97.8469 126.008 98.3287 125.863Z" fill="#433D65"/>
<path d="M357.433 55.5471C354.328 52.7551 350.728 50.6106 347.13 48.5256C343.642 46.5028 340.106 44.5007 336.988 41.9263C335.284 40.5199 333.706 38.9452 332.404 37.1555C332.113 36.7541 331.437 37.1426 331.733 37.5466C334.077 40.7686 337.203 43.2809 340.513 45.4513C343.991 47.7305 347.692 49.6445 351.202 51.8745C353.196 53.141 355.126 54.5163 356.884 56.0962C357.255 56.4303 357.806 55.8812 357.433 55.5471Z" fill="#6E7DFE"/>
<path d="M337.77 43.1177C335.405 42.3537 332.896 43.0814 330.793 44.3065C328.69 45.5316 326.921 47.2177 324.913 48.58C322.906 49.9423 320.505 51.0042 318.042 50.7167C322.556 51.0871 327.154 50.5795 331.344 49.0151C332.875 48.4453 334.369 47.7201 335.556 46.6297C336.742 45.5445 337.731 44.7209 337.77 43.1177Z" fill="#8081FF"/>
<path d="M333.389 39.0592C331.367 36.8266 331.416 33.4156 332.439 30.6702C332.861 29.5383 333.537 28.5179 334.174 27.4896C335.661 25.0861 336.984 22.5013 337.293 19.6912C337.267 22.1335 337.243 24.5733 337.218 27.0157C337.207 28.119 337.194 29.2301 337.003 30.3127C336.832 31.2866 336.518 32.2268 336.171 33.1488C335.399 35.2053 334.495 37.1581 333.389 39.0592Z" fill="#8081FF"/>
<path d="M333.39 39.0591C331.038 39.5952 328.492 39.2999 326.462 37.9609C321.769 34.8659 321.033 28.3753 317.254 24.2598C315.838 22.7162 313.999 21.5429 311.989 20.8954C312.496 20.5795 313.159 20.9421 313.672 21.2736C318.228 24.2184 323.923 25.4849 327.796 29.2482C330.564 31.9366 331.973 35.5263 333.39 39.0591Z" fill="#8081FF"/>
<path d="M38.6768 92.5711C40.2049 88.7613 40.9016 84.7027 41.5647 80.6727C42.1992 76.811 42.8182 72.9156 44.121 69.2119C44.8306 67.1943 45.7579 65.257 46.97 63.4906C47.2549 63.0762 46.5815 62.6877 46.2992 63.0995C44.1184 66.2775 42.8856 69.9863 42.049 73.7185C41.1606 77.6812 40.7048 81.7242 39.8708 85.6973C39.3942 87.9661 38.7908 90.2116 37.9257 92.3665C37.7418 92.8275 38.4929 93.0296 38.6768 92.5711Z" fill="#6174FA"/>
<path d="M45.499 65.0677C46.8795 62.4751 50.1455 61.421 53.1369 61.4857C54.3698 61.5116 55.5896 61.8095 56.8044 62.0659C59.6404 62.6667 62.5904 63.0604 65.3798 62.4362C63.0462 63.2003 60.7127 63.9643 58.3765 64.7284C57.3198 65.0728 56.2605 65.4199 55.1571 65.5934C54.1677 65.7488 53.1576 65.7618 52.1501 65.7385C49.9098 65.6867 47.7161 65.4795 45.499 65.0677Z" fill="#8081FF"/>
<path d="M45.4997 65.0678C44.1218 63.0631 43.4639 60.613 43.9897 58.3027C45.2044 52.9621 51.1148 50.1908 53.64 45.3657C54.5854 43.5579 55.0257 41.4781 54.9014 39.4087C55.3883 39.7765 55.2873 40.5068 55.163 41.087C54.0389 46.254 54.9324 51.9313 52.7776 56.728C51.2365 60.1571 48.3383 62.6176 45.4997 65.0678Z" fill="#8081FF"/>
</svg>
