<svg width="20" height="20" viewBox="0 0 20 20" fill="none" xmlns="http://www.w3.org/2000/svg">
<path d="M4.54543 9.09085C5.95123 9.09085 7.09085 7.95123 7.09085 6.54543C7.09085 5.13963 5.95123 4 4.54543 4C3.13963 4 2 5.13963 2 6.54543C2 7.95123 3.13963 9.09085 4.54543 9.09085Z" stroke="#555960" stroke-width="1.5" stroke-linecap="round" stroke-linejoin="round"/>
<path d="M15.4546 15.6362C16.8604 15.6362 18 14.4966 18 13.0908C18 11.685 16.8604 10.5454 15.4546 10.5454C14.0488 10.5454 12.9091 11.685 12.9091 13.0908C12.9091 14.4966 14.0488 15.6362 15.4546 15.6362Z" stroke="#555960" stroke-width="1.5" stroke-linecap="round" stroke-linejoin="round"/>
<path d="M12.9092 13.4544L10 13.5C9 13.5 7.68536 13.5 7 13.5C6.5 13.5 4.5 13.5 4.5 11.5L4.54543 9.09085" stroke="#555960" stroke-width="1.5" stroke-linecap="round" stroke-linejoin="round"/>
</svg>
