<svg width="20" height="20" viewBox="0 0 20 20" fill="none" xmlns="http://www.w3.org/2000/svg">
<path d="M12.4995 6.2496L5.99112 12.8661C5.7567 13.1005 5.625 13.4185 5.625 13.75C5.625 14.0815 5.7567 14.3994 5.99112 14.6339C6.22554 14.8683 6.54348 15 6.875 15C7.20652 15 7.52446 14.8683 7.75888 14.6339L15.5173 6.76737C15.7495 6.53522 15.9336 6.25963 16.0592 5.95631C16.1849 5.653 16.2495 5.32791 16.2495 4.9996C16.2495 4.6713 16.1849 4.34621 16.0592 4.04289C15.9336 3.73958 15.7495 3.46398 15.5173 3.23184C15.2852 2.99969 15.0096 2.81554 14.7063 2.6899C14.4029 2.56427 14.0778 2.4996 13.7495 2.4996C13.4212 2.4996 13.0961 2.56427 12.7928 2.6899C12.4895 2.81554 12.2139 2.99969 11.9818 3.23184L4.22335 11.0983C3.52009 11.8016 3.125 12.7554 3.125 13.75C3.125 14.7445 3.52009 15.6984 4.22335 16.4016C4.92661 17.1049 5.88044 17.5 6.875 17.5C7.86956 17.5 8.82339 17.1049 9.52665 16.4016L15.937 9.99961" stroke="#555960" stroke-width="1.5" stroke-linecap="round" stroke-linejoin="round"/>
</svg>
