<svg width="20" height="20" viewBox="0 0 20 20" fill="none" xmlns="http://www.w3.org/2000/svg">
<path d="M4.39089 8.75001C4.38883 8.01205 4.5324 7.28094 4.81338 6.59856C5.09435 5.91618 5.50722 5.29594 6.02831 4.7734C6.5494 4.25085 7.16847 3.83626 7.85007 3.55337C8.53166 3.27049 9.26237 3.12488 10.0003 3.12488C10.7383 3.12488 11.469 3.27049 12.1506 3.55337C12.8322 3.83626 13.4513 4.25085 13.9724 4.7734C14.4935 5.29594 14.9063 5.91618 15.1873 6.59856C15.4683 7.28094 15.6118 8.01205 15.6098 8.75001C15.6098 11.5481 16.1952 13.1718 16.7108 14.0592C16.7663 14.1541 16.7959 14.2619 16.7965 14.3718C16.7971 14.4816 16.7687 14.5897 16.7141 14.6852C16.6596 14.7806 16.5809 14.8599 16.4859 14.9152C16.3909 14.9705 16.2831 14.9997 16.1732 15H3.82687C3.71697 14.9997 3.60908 14.9705 3.51409 14.9152C3.41911 14.8599 3.34038 14.7805 3.28586 14.6851C3.23134 14.5897 3.20295 14.4815 3.20356 14.3716C3.20417 14.2617 3.23375 14.1539 3.28932 14.0591C3.8052 13.1716 4.39088 11.548 4.39088 8.75001H4.39089Z" fill="#555960" stroke="#555960" stroke-width="1.5" stroke-linecap="round" stroke-linejoin="round"/>
<path d="M7.5 15V15.625C7.5 16.288 7.76339 16.9239 8.23223 17.3928C8.70107 17.8616 9.33696 18.125 10 18.125C10.663 18.125 11.2989 17.8616 11.7678 17.3928C12.2366 16.9239 12.5 16.288 12.5 15.625V15" stroke="#555960" stroke-width="1.5" stroke-linecap="round" stroke-linejoin="round"/>
<path d="M14.3306 1.87408C15.6024 2.67694 16.6276 3.8156 17.293 5.16437" stroke="#555960" stroke-width="1.5" stroke-linecap="round" stroke-linejoin="round"/>
<path d="M2.70691 5.16437C3.37234 3.8156 4.39753 2.67694 5.66929 1.87408" stroke="#555960" stroke-width="1.5" stroke-linecap="round" stroke-linejoin="round"/>
</svg>
