<svg width="20" height="20" viewBox="0 0 20 20" fill="none" xmlns="http://www.w3.org/2000/svg">
<path d="M12.0045 7.00445L5.12954 13.8795C5.01232 13.9966 4.85335 14.0625 4.6876 14.0625C4.52185 14.0625 4.36289 13.9966 4.24567 13.8795L0.808093 10.4421C0.690875 10.3249 0.625014 10.1659 0.625 10.0002C0.624986 9.83443 0.690819 9.67546 0.808016 9.55824C0.925214 9.44102 1.08418 9.37516 1.24993 9.37515C1.41569 9.37513 1.57466 9.44096 1.69188 9.55816L4.68756 12.5536L11.1205 6.12051C11.2377 6.00329 11.3967 5.93744 11.5625 5.93744C11.7283 5.93744 11.8872 6.00329 12.0045 6.12051C12.1217 6.23773 12.1875 6.39671 12.1875 6.56248C12.1875 6.72825 12.1217 6.88723 12.0045 7.00445H12.0045ZM19.192 6.12051C19.0747 6.00334 18.9157 5.93752 18.75 5.93752C18.5842 5.93752 18.4253 6.00334 18.308 6.12051L11.8751 12.5536L10.4909 11.1696C10.3736 11.0524 10.2147 10.9865 10.0489 10.9866C9.88316 10.9866 9.72419 11.0524 9.607 11.1696C9.4898 11.2869 9.42397 11.4458 9.42398 11.6116C9.42399 11.7773 9.48985 11.9363 9.60707 12.0535L11.4332 13.8795C11.5504 13.9966 11.7093 14.0625 11.8751 14.0625C12.0409 14.0625 12.1998 13.9966 12.317 13.8795L19.192 7.00445C19.3092 6.88723 19.375 6.72825 19.375 6.56248C19.375 6.39671 19.3092 6.23773 19.192 6.12051Z" fill="#555960"/>
</svg>
