<svg width="20" height="20" viewBox="0 0 20 20" fill="none" xmlns="http://www.w3.org/2000/svg">
<path d="M5.45453 11.8181C8.46699 11.8181 10.9091 9.37607 10.9091 6.36362C10.9091 3.35116 8.46699 0.909088 5.45453 0.909088C2.44208 0.909088 0 3.35116 0 6.36362C0 9.37607 2.44208 11.8181 5.45453 11.8181Z" fill="#4285F4"/>
<path d="M14.5455 11.8182C16.0518 11.8182 17.2728 10.5971 17.2728 9.09091C17.2728 7.58469 16.0518 6.36365 14.5455 6.36365C13.0393 6.36365 11.8182 7.58469 11.8182 9.09091C11.8182 10.5971 13.0393 11.8182 14.5455 11.8182Z" fill="#EA4335"/>
<path d="M14.5455 19.0909C16.3028 19.0909 17.7273 17.6663 17.7273 15.9091C17.7273 14.1518 16.3028 12.7272 14.5455 12.7272C12.7882 12.7272 11.3636 14.1518 11.3636 15.9091C11.3636 17.6663 12.7882 19.0909 14.5455 19.0909Z" fill="#FBBC05"/>
<path d="M18.6363 7.27274C19.3894 7.27274 19.9999 6.66221 19.9999 5.90909C19.9999 5.15597 19.3894 4.54544 18.6363 4.54544C17.8832 4.54544 17.2727 5.15597 17.2727 5.90909C17.2727 6.66221 17.8832 7.27274 18.6363 7.27274Z" fill="#34A853"/>
</svg>
