<svg width="40" height="40" viewBox="0 0 40 40" fill="none" xmlns="http://www.w3.org/2000/svg">
<circle cx="20" cy="20" r="20" fill="#DB4639"/>
<path d="M20.3421 18.442V22.4004H25.7255C24.9338 24.5379 22.8755 25.9629 20.5005 25.9629C17.413 25.9629 14.9588 23.5087 14.9588 20.4212C14.9588 17.3337 17.413 14.8795 20.5005 14.8795C21.688 14.8795 22.7963 15.2754 23.7463 15.9087L24.063 16.1462L26.438 13.0587L26.1213 12.8212C24.4588 11.6337 22.5588 11.0004 20.5005 11.0004C15.2755 11.0004 11.0005 15.2754 11.0005 20.5004C11.0005 25.7254 15.2755 30.0004 20.5005 30.0004C25.7255 30.0004 30.0005 25.7254 30.0005 20.5004V18.5212H20.3421V18.442Z" fill="white" stroke="white" stroke-width="0.1" stroke-linecap="round"/>
</svg>
