<svg width="20" height="20" viewBox="0 0 20 20" fill="none" xmlns="http://www.w3.org/2000/svg">
<path d="M17.5 14.6875C17.5001 15.217 17.3508 15.7357 17.0691 16.1841C16.7875 16.6324 16.385 16.9922 15.908 17.2219C15.431 17.4517 14.8988 17.5421 14.3727 17.4829C13.8465 17.4236 13.3478 17.217 12.9338 16.8869C12.5199 16.5567 12.2076 16.1164 12.0328 15.6166C11.8579 15.1169 11.8278 14.5779 11.9457 14.0617C12.0636 13.5455 12.3248 13.0731 12.6993 12.6988C13.0738 12.3245 13.5463 12.0635 14.0625 11.9459V11.875C14.0622 11.5436 13.9303 11.2258 13.696 10.9915C13.4617 10.7572 13.1439 10.6254 12.8125 10.625L7.18746 10.6249C6.7485 10.6254 6.31723 10.5096 5.93754 10.2893V11.9459C6.61172 12.0995 7.20567 12.4962 7.60593 13.06C8.00619 13.6239 8.18472 14.3154 8.1074 15.0025C8.03009 15.6897 7.70235 16.3242 7.1868 16.785C6.67124 17.2458 6.00401 17.5005 5.31254 17.5005C4.62107 17.5005 3.95383 17.2458 3.43828 16.785C2.92272 16.3242 2.59499 15.6897 2.51767 15.0025C2.44036 14.3154 2.61888 13.6239 3.01915 13.06C3.41941 12.4962 4.01336 12.0995 4.68754 11.9459V8.05395C4.01336 7.90029 3.41941 7.50365 3.01915 6.93981C2.61888 6.37597 2.44036 5.68443 2.51767 4.9973C2.59499 4.31016 2.92272 3.67559 3.43828 3.21479C3.95383 2.754 4.62107 2.49927 5.31254 2.49927C6.00401 2.49927 6.67124 2.754 7.1868 3.21479C7.70235 3.67559 8.03009 4.31016 8.1074 4.9973C8.18472 5.68443 8.00619 6.37597 7.60593 6.93981C7.20567 7.50365 6.61172 7.90029 5.93754 8.05395V8.12485C5.93792 8.45624 6.06973 8.77395 6.30405 9.00829C6.53837 9.24262 6.85607 9.37445 7.18746 9.37485L12.8125 9.37497C13.4753 9.37574 14.1108 9.63938 14.5795 10.1081C15.0481 10.5767 15.3118 11.2122 15.3125 11.875V11.9459C15.9334 12.0882 16.4878 12.4368 16.8851 12.9347C17.2824 13.4326 17.4991 14.0505 17.5 14.6875ZM3.75004 14.6875C3.75004 14.9965 3.84168 15.2986 4.01337 15.5556C4.18506 15.8125 4.42908 16.0128 4.71459 16.1311C5.0001 16.2493 5.31427 16.2803 5.61737 16.22C5.92046 16.1597 6.19887 16.0109 6.41739 15.7924C6.63591 15.5738 6.78472 15.2954 6.84501 14.9923C6.9053 14.6892 6.87436 14.3751 6.7561 14.0896C6.63784 13.8041 6.43757 13.56 6.18062 13.3883C5.92366 13.2166 5.62157 13.125 5.31254 13.125C4.89828 13.1255 4.50112 13.2902 4.2082 13.5832C3.91527 13.8761 3.7505 14.2732 3.75004 14.6875ZM6.87504 5.31231C6.87504 5.00328 6.7834 4.70119 6.61171 4.44423C6.44002 4.18728 6.19599 3.98701 5.91048 3.86875C5.62497 3.75049 5.3108 3.71955 5.00771 3.77984C4.70461 3.84013 4.4262 3.98894 4.20768 4.20746C3.98916 4.42598 3.84035 4.70439 3.78006 5.00748C3.71977 5.31058 3.75071 5.62475 3.86898 5.91026C3.98724 6.19576 4.18751 6.43979 4.44446 6.61148C4.70141 6.78317 5.0035 6.87481 5.31254 6.87481C5.72679 6.87435 6.12395 6.70957 6.41688 6.41665C6.7098 6.12373 6.87457 5.72657 6.87504 5.31231Z" fill="#555960"/>
</svg>
