<svg width="20" height="20" viewBox="0 0 20 20" fill="none" xmlns="http://www.w3.org/2000/svg">
<path opacity="0.2" d="M3.07971 9.13043H6.55797V16.6667H3.07971C2.92596 16.6667 2.77851 16.6056 2.66979 16.4969C2.56108 16.3882 2.5 16.2407 2.5 16.087V9.71014C2.5 9.55639 2.56108 9.40894 2.66979 9.30023C2.77851 9.19151 2.92596 9.13043 3.07971 9.13043Z" fill="#555960"/>
<path d="M6.55798 9.13044L9.45653 3.33334C9.76105 3.33334 10.0626 3.39332 10.3439 3.50985C10.6253 3.62639 10.8809 3.79719 11.0962 4.01252C11.3115 4.22784 11.4823 4.48347 11.5989 4.7648C11.7154 5.04614 11.7754 5.34767 11.7754 5.65218V7.39131H16.2591C16.4235 7.39131 16.586 7.42628 16.7359 7.49388C16.8857 7.56148 17.0195 7.66018 17.1283 7.78343C17.2371 7.90667 17.3184 8.05165 17.3669 8.20873C17.4154 8.36581 17.43 8.53141 17.4096 8.69454L16.54 15.6511C16.505 15.9315 16.3687 16.1894 16.1568 16.3764C15.945 16.5635 15.6721 16.6667 15.3895 16.6667H6.55798" stroke="#555960" stroke-width="1.22057" stroke-linecap="round" stroke-linejoin="round"/>
<path d="M3.08129 9.0611H6.56905V16.6179H3.08129C2.92712 16.6179 2.77927 16.5567 2.67026 16.4476C2.56124 16.3386 2.5 16.1908 2.5 16.0366V9.64239C2.5 9.48822 2.56124 9.34037 2.67026 9.23135C2.77927 9.12234 2.92712 9.0611 3.08129 9.0611V9.0611Z" stroke="#555960" stroke-width="1.22057" stroke-linecap="round" stroke-linejoin="round"/>
</svg>
