<svg width="20" height="20" viewBox="0 0 20 20" fill="none" xmlns="http://www.w3.org/2000/svg">
<path d="M9.55805 5.58057L11.1049 4.03377C11.424 3.71433 11.803 3.46089 12.2201 3.28794C12.6372 3.11499 13.0843 3.02592 13.5359 3.02582C13.9874 3.02571 14.4346 3.11458 14.8518 3.28733C15.269 3.46008 15.648 3.71334 15.9673 4.03264C16.2866 4.35193 16.5399 4.73101 16.7127 5.14821C16.8854 5.56541 16.9743 6.01256 16.9742 6.46412C16.9741 6.91567 16.885 7.36278 16.712 7.7799C16.5391 8.19702 16.2857 8.57598 15.9662 8.89513L13.7565 11.1048C13.4373 11.424 13.0584 11.6772 12.6413 11.85C12.2242 12.0227 11.7772 12.1117 11.3258 12.1117C10.8744 12.1117 10.4274 12.0227 10.0103 11.85C9.59329 11.6772 9.21434 11.424 8.89514 11.1048" stroke="#555960" stroke-width="1.5" stroke-linecap="round" stroke-linejoin="round"/>
<path d="M10.4419 14.4194L8.89513 15.9662C8.57598 16.2857 8.19702 16.5391 7.7799 16.7121C7.36278 16.885 6.91567 16.9741 6.46412 16.9742C6.01257 16.9743 5.56542 16.8854 5.14821 16.7127C4.73101 16.5399 4.35194 16.2867 4.03264 15.9674C3.71334 15.6481 3.46008 15.269 3.28733 14.8518C3.11458 14.4346 3.02571 13.9874 3.02582 13.5359C3.02592 13.0843 3.11499 12.6372 3.28794 12.2201C3.46089 11.803 3.71433 11.424 4.03377 11.1049L6.24348 8.89516C6.56268 8.57596 6.94163 8.32275 7.35869 8.15C7.77574 7.97725 8.22274 7.88834 8.67416 7.88834C9.12558 7.88834 9.57258 7.97725 9.98963 8.15C10.4067 8.32275 10.7856 8.57596 11.1048 8.89516" stroke="#555960" stroke-width="1.5" stroke-linecap="round" stroke-linejoin="round"/>
</svg>
