<svg width="20" height="20" viewBox="0 0 20 20" fill="none" xmlns="http://www.w3.org/2000/svg">
<path d="M6.875 5.06024H16.875" stroke="#555960" stroke-width="1.5" stroke-linecap="round" stroke-linejoin="round"/>
<path d="M6.87549 10H16.875" stroke="#555960" stroke-width="1.5" stroke-linecap="round" stroke-linejoin="round"/>
<path d="M6.87549 14.8125H16.875" stroke="#555960" stroke-width="1.5" stroke-linecap="round" stroke-linejoin="round"/>
<path d="M3.25 5.81024C3.66421 5.81024 4 5.47446 4 5.06024C4 4.64603 3.66421 4.31024 3.25 4.31024C2.83579 4.31024 2.5 4.64603 2.5 5.06024C2.5 5.47446 2.83579 5.81024 3.25 5.81024Z" fill="#555960"/>
<path d="M3.25 10.75C3.66421 10.75 4 10.4142 4 10C4 9.58579 3.66421 9.25 3.25 9.25C2.83579 9.25 2.5 9.58579 2.5 10C2.5 10.4142 2.83579 10.75 3.25 10.75Z" fill="#555960"/>
<path d="M3.25 15.5625C3.66421 15.5625 4 15.2267 4 14.8125C4 14.3983 3.66421 14.0625 3.25 14.0625C2.83579 14.0625 2.5 14.3983 2.5 14.8125C2.5 15.2267 2.83579 15.5625 3.25 15.5625Z" fill="#555960"/>
</svg>
