<svg width="133" height="133" viewBox="0 0 133 133" fill="none" xmlns="http://www.w3.org/2000/svg">
<path d="M89.971 47.8184C90.3889 46.6348 91.0574 45.7259 91.9767 45.0918C92.9377 44.4577 93.9823 44.1406 95.1105 44.1406C96.4894 44.1406 97.6803 44.5845 98.6831 45.4722C99.7277 46.36 100.25 47.5648 100.25 49.0866C100.25 49.763 100.083 50.6085 99.7486 51.623L87.1506 86.1182C86.7327 87.3018 85.9597 88.2318 84.8315 88.9082C83.7451 89.5423 82.5334 89.8594 81.1963 89.8594C79.8592 89.8594 78.6474 89.5423 77.561 88.9082C76.4746 88.2318 75.7225 87.3018 75.3047 86.1182L70.4786 72.184L67.1567 62.593L58.6327 86.1182C58.173 87.3018 57.4 88.2318 56.3136 88.9082C55.2272 89.5423 54.0364 89.8594 52.741 89.8594C51.4039 89.8594 50.1922 89.5423 49.1058 88.9082C48.0194 88.2318 47.2673 87.3018 46.8494 86.1182L34.1887 51.623C33.8962 50.7776 33.75 49.9744 33.75 49.2134C33.75 47.6493 34.2932 46.4234 35.3796 45.5356C36.5078 44.6056 37.8031 44.1406 39.2656 44.1406C40.4355 44.1406 41.501 44.4577 42.4621 45.0918C43.4649 45.6836 44.1752 46.5925 44.5931 47.8184L53.1798 72.802L62.2679 47.8184C62.6858 46.6348 63.3543 45.7259 64.2736 45.0918C65.2346 44.4577 66.2792 44.1406 67.4074 44.1406C68.5356 44.1406 69.5593 44.4577 70.4786 45.0918C71.3978 45.7259 72.0664 46.6559 72.4842 47.8818L81.0083 73.3727L89.971 47.8184Z" fill="white"/>
</svg>
