<svg width="40" height="40" viewBox="0 0 40 40" fill="none" xmlns="http://www.w3.org/2000/svg">
<circle cx="20" cy="20" r="20" fill="#FDA944"/>
<path d="M25.1443 25.9918C25.6673 25.7957 26.3212 26.0572 26.5173 26.5803C26.7135 27.1034 26.452 27.7572 25.9289 27.9534C24.2943 28.6726 22.6597 28.9995 21.025 28.9995C18.2135 28.9995 16.0558 28.2149 14.4212 26.5149C12.7866 24.8149 12.002 22.8534 12.002 20.4995C12.002 18.0803 12.8519 16.0534 14.5519 14.4187C16.2519 12.7841 18.3443 11.9995 20.7635 11.9995C23.1173 11.9995 25.0135 12.7187 26.5827 14.1572L25.1443 25.9918ZM25.1443 25.9918C23.7712 26.5803 22.3981 26.9072 21.0904 26.9072C18.9981 26.9072 17.3635 26.2534 16.1866 24.9457C15.0096 23.638 14.4212 22.1341 14.4212 20.4341C14.4212 18.538 15.075 16.9687 16.252 15.7264L25.1443 25.9918ZM29.1171 19.2522C28.9199 17.2799 28.1305 15.5026 26.6164 14.1203L25.9464 28.0002C25.9469 28 25.9473 27.9998 25.9478 27.9997C26.4984 27.7923 26.7689 27.1086 26.5642 26.5627C26.3573 26.0112 25.673 25.7401 25.1267 25.945L25.1267 25.945L25.1246 25.9459C23.7562 26.5323 22.3899 26.8572 21.0904 26.8572C19.0093 26.8572 17.3894 26.2074 16.2237 24.9122C15.0548 23.6134 14.4712 22.1213 14.4712 20.4341C14.4712 18.5509 15.1201 16.9941 16.2878 15.7613C17.5209 14.5285 19.0119 13.8803 20.8289 13.8803C22.452 13.8803 23.8785 14.3994 25.0457 15.4369C26.2108 16.4726 26.7289 17.7661 26.7289 19.3226C26.7289 20.3605 26.4695 21.265 25.9538 21.9739C25.4356 22.6866 24.9256 22.9995 24.3596 22.9995C24.2011 22.9995 24.1046 22.9675 24.0454 22.9016C23.9847 22.8342 23.952 22.7196 23.952 22.5264C23.952 22.2644 23.9521 21.9422 24.0164 21.6209L24.0165 21.6209L24.017 21.6172L24.6708 16.321L24.6777 16.2649H24.6212H22.3981H22.3591L22.3496 16.3028L22.2373 16.752C21.6632 16.3186 21.0823 16.0687 20.4366 16.0687C19.3739 16.0687 18.4459 16.5343 17.6537 17.3925C16.858 18.2545 16.5289 19.3797 16.5289 20.6957C16.5289 22.0122 16.8583 23.0707 17.5867 23.9317C18.2496 24.727 19.1134 25.1264 20.0443 25.1264C20.8895 25.1264 21.6088 24.8079 22.199 24.112C22.6636 24.7466 23.3213 25.1264 24.2289 25.1264C25.5541 25.1264 26.6784 24.5292 27.6664 23.4095C28.6565 22.2873 29.1173 20.9019 29.1173 19.2572H29.1176L29.1171 19.2522ZM19.2327 19.2238L19.2328 19.2239L19.2349 19.2209C19.5534 18.775 19.9312 18.588 20.3712 18.588C20.7508 18.588 21.1282 18.7137 21.4443 19.0931L21.4442 19.0932L21.4474 19.0964C21.7616 19.4106 21.8904 19.8534 21.8904 20.3687H21.8902L21.8907 20.3737C21.9546 21.0134 21.7632 21.5896 21.3773 22.1041C20.9926 22.6171 20.5487 22.8687 19.9789 22.8687C19.7919 22.8687 19.6383 22.8223 19.4999 22.73C19.3605 22.6371 19.234 22.4959 19.1051 22.3025C18.852 21.9229 18.7866 21.4776 18.7866 20.8918C18.7866 20.1766 18.917 19.6026 19.2327 19.2238Z" fill="white" stroke="white" stroke-width="0.1"/>
</svg>
