<svg width="20" height="20" viewBox="0 0 20 20" fill="none" xmlns="http://www.w3.org/2000/svg">
<path d="M4.6875 3.75C4.50208 3.75 4.32082 3.80498 4.16665 3.908C4.01248 4.01101 3.89232 4.15743 3.82136 4.32873C3.75041 4.50004 3.73184 4.68854 3.76801 4.8704C3.80419 5.05225 3.89348 5.2193 4.02459 5.35041C4.1557 5.48152 4.32275 5.57081 4.5046 5.60699C4.68646 5.64316 4.87496 5.62459 5.04627 5.55364C5.21757 5.48268 5.36399 5.36252 5.467 5.20835C5.57002 5.05418 5.625 4.87292 5.625 4.6875C5.62472 4.43895 5.52585 4.20066 5.3501 4.0249C5.17435 3.84915 4.93605 3.75028 4.6875 3.75ZM10 3.75C9.81458 3.75 9.63332 3.80498 9.47915 3.908C9.32498 4.01101 9.20482 4.15743 9.13386 4.32873C9.06291 4.50004 9.04434 4.68854 9.08051 4.8704C9.11669 5.05225 9.20598 5.2193 9.33709 5.35041C9.4682 5.48152 9.63525 5.57081 9.8171 5.60699C9.99896 5.64316 10.1875 5.62459 10.3588 5.55364C10.5301 5.48268 10.6765 5.36252 10.7795 5.20835C10.8825 5.05418 10.9375 4.87292 10.9375 4.6875C10.9372 4.43895 10.8384 4.20066 10.6626 4.0249C10.4868 3.84915 10.2486 3.75028 10 3.75ZM15.3125 5.625C15.4979 5.625 15.6792 5.57002 15.8333 5.467C15.9875 5.36399 16.1077 5.21757 16.1786 5.04627C16.2496 4.87496 16.2682 4.68646 16.232 4.5046C16.1958 4.32275 16.1065 4.1557 15.9754 4.02459C15.8443 3.89348 15.6773 3.80419 15.4954 3.76801C15.3135 3.73184 15.125 3.75041 14.9537 3.82136C14.7824 3.89232 14.636 4.01248 14.533 4.16665C14.43 4.32082 14.375 4.50208 14.375 4.6875C14.3753 4.93605 14.4741 5.17435 14.6499 5.3501C14.8257 5.52585 15.0639 5.62472 15.3125 5.625ZM4.6875 14.375C4.50208 14.375 4.32082 14.43 4.16665 14.533C4.01248 14.636 3.89232 14.7824 3.82136 14.9537C3.75041 15.125 3.73184 15.3135 3.76801 15.4954C3.80419 15.6773 3.89348 15.8443 4.02459 15.9754C4.1557 16.1065 4.32275 16.1958 4.5046 16.232C4.68646 16.2682 4.87496 16.2496 5.04627 16.1786C5.21757 16.1077 5.36399 15.9875 5.467 15.8333C5.57002 15.6792 5.625 15.4979 5.625 15.3125C5.62472 15.0639 5.52585 14.8257 5.3501 14.6499C5.17435 14.4741 4.93605 14.3753 4.6875 14.375ZM10 14.375C9.81458 14.375 9.63332 14.43 9.47915 14.533C9.32498 14.636 9.20482 14.7824 9.13386 14.9537C9.06291 15.125 9.04434 15.3135 9.08051 15.4954C9.11669 15.6773 9.20598 15.8443 9.33709 15.9754C9.4682 16.1065 9.63525 16.1958 9.8171 16.232C9.99896 16.2682 10.1875 16.2496 10.3588 16.1786C10.5301 16.1077 10.6765 15.9875 10.7795 15.8333C10.8825 15.6792 10.9375 15.4979 10.9375 15.3125C10.9372 15.0639 10.8384 14.8257 10.6626 14.6499C10.4868 14.4741 10.2486 14.3753 10 14.375ZM15.3125 14.375C15.1271 14.375 14.9458 14.43 14.7917 14.533C14.6375 14.636 14.5173 14.7824 14.4464 14.9537C14.3754 15.125 14.3568 15.3135 14.393 15.4954C14.4292 15.6773 14.5185 15.8443 14.6496 15.9754C14.7807 16.1065 14.9477 16.1958 15.1296 16.232C15.3115 16.2682 15.5 16.2496 15.6713 16.1786C15.8426 16.1077 15.989 15.9875 16.092 15.8333C16.195 15.6792 16.25 15.4979 16.25 15.3125C16.2497 15.0639 16.1509 14.8257 15.9751 14.6499C15.7993 14.4741 15.5611 14.3753 15.3125 14.375ZM4.6875 9.0625C4.50208 9.0625 4.32082 9.11748 4.16665 9.2205C4.01248 9.32351 3.89232 9.46993 3.82136 9.64123C3.75041 9.81254 3.73184 10.001 3.76801 10.1829C3.80419 10.3648 3.89348 10.5318 4.02459 10.6629C4.1557 10.794 4.32275 10.8833 4.5046 10.9195C4.68646 10.9557 4.87496 10.9371 5.04627 10.8661C5.21757 10.7952 5.36399 10.675 5.467 10.5208C5.57002 10.3667 5.625 10.1854 5.625 10C5.62472 9.75145 5.52585 9.51316 5.3501 9.3374C5.17435 9.16165 4.93605 9.06278 4.6875 9.0625ZM10 9.0625C9.81458 9.0625 9.63332 9.11748 9.47915 9.2205C9.32498 9.32351 9.20482 9.46993 9.13386 9.64123C9.06291 9.81254 9.04434 10.001 9.08051 10.1829C9.11669 10.3648 9.20598 10.5318 9.33709 10.6629C9.4682 10.794 9.63525 10.8833 9.8171 10.9195C9.99896 10.9557 10.1875 10.9371 10.3588 10.8661C10.5301 10.7952 10.6765 10.675 10.7795 10.5208C10.8825 10.3667 10.9375 10.1854 10.9375 10C10.9372 9.75145 10.8384 9.51316 10.6626 9.3374C10.4868 9.16165 10.2486 9.06278 10 9.0625ZM15.3125 9.0625C15.1271 9.0625 14.9458 9.11748 14.7917 9.2205C14.6375 9.32351 14.5173 9.46993 14.4464 9.64123C14.3754 9.81254 14.3568 10.001 14.393 10.1829C14.4292 10.3648 14.5185 10.5318 14.6496 10.6629C14.7807 10.794 14.9477 10.8833 15.1296 10.9195C15.3115 10.9557 15.5 10.9371 15.6713 10.8661C15.8426 10.7952 15.989 10.675 16.092 10.5208C16.195 10.3667 16.25 10.1854 16.25 10C16.2497 9.75145 16.1509 9.51316 15.9751 9.3374C15.7993 9.16165 15.5611 9.06278 15.3125 9.0625Z" fill="#2A3245"/>
</svg>
