<svg width="20" height="20" viewBox="0 0 20 20" fill="none" xmlns="http://www.w3.org/2000/svg">
<path d="M10 5.78125C10.4315 5.78125 10.7812 5.43147 10.7812 5C10.7812 4.56853 10.4315 4.21875 10 4.21875C9.56853 4.21875 9.21875 4.56853 9.21875 5C9.21875 5.43147 9.56853 5.78125 10 5.78125Z" fill="#555960" stroke="#555960" stroke-width="2"/>
<path d="M10 10.7812C10.4315 10.7812 10.7812 10.4315 10.7812 10C10.7812 9.56853 10.4315 9.21875 10 9.21875C9.56853 9.21875 9.21875 9.56853 9.21875 10C9.21875 10.4315 9.56853 10.7812 10 10.7812Z" fill="#555960" stroke="#555960" stroke-width="2"/>
<path d="M10 15.7812C10.4315 15.7812 10.7812 15.4315 10.7812 15C10.7812 14.5685 10.4315 14.2188 10 14.2188C9.56853 14.2188 9.21875 14.5685 9.21875 15C9.21875 15.4315 9.56853 15.7812 10 15.7812Z" fill="#555960" stroke="#555960" stroke-width="2"/>
</svg>
