<svg width="20" height="20" viewBox="0 0 20 20" fill="none" xmlns="http://www.w3.org/2000/svg">
<path d="M16.8585 9.23156C16.835 9.13153 16.7872 9.03883 16.7194 8.96166C16.6515 8.8845 16.5657 8.82525 16.4695 8.78917L11.9671 7.10078L13.1129 1.37195C13.1396 1.23861 13.122 1.10021 13.0629 0.97774C13.0038 0.855275 12.9064 0.755427 12.7854 0.69334C12.6644 0.631254 12.5265 0.610316 12.3925 0.633704C12.2586 0.657091 12.1359 0.723528 12.0431 0.822936L3.29309 10.1979C3.22298 10.2731 3.17247 10.3643 3.14604 10.4636C3.1196 10.5629 3.11806 10.6672 3.14154 10.7672C3.16502 10.8672 3.2128 10.9599 3.28066 11.0371C3.34851 11.1143 3.43435 11.1735 3.53056 11.2096L8.03293 12.898L6.88715 18.6268C6.86047 18.7602 6.87801 18.8986 6.93712 19.021C6.99622 19.1435 7.09365 19.2434 7.21464 19.3055C7.33563 19.3676 7.47357 19.3885 7.60753 19.3651C7.74149 19.3417 7.86417 19.2753 7.95694 19.1758L16.7069 9.80083C16.7771 9.72571 16.8276 9.63446 16.854 9.53517C16.8804 9.43587 16.882 9.33159 16.8585 9.23156Z" fill="#555960"/>
</svg>
