<svg width="20" height="20" viewBox="0 0 20 20" fill="none" xmlns="http://www.w3.org/2000/svg">
<path d="M16.9908 9.4667L5.7426 2.59259C5.64786 2.53469 5.5394 2.50307 5.42839 2.50099C5.31737 2.49892 5.20781 2.52645 5.11097 2.58076C5.01412 2.63507 4.9335 2.7142 4.87738 2.81001C4.82127 2.90582 4.79169 3.01485 4.79169 3.12588V16.8741C4.79169 16.9851 4.82127 17.0942 4.87738 17.19C4.9335 17.2858 5.01412 17.3649 5.11097 17.4192C5.20781 17.4735 5.31737 17.5011 5.42839 17.499C5.5394 17.4969 5.64786 17.4653 5.7426 17.4074L16.9908 10.5333C17.0821 10.4775 17.1576 10.3991 17.21 10.3057C17.2624 10.2123 17.2899 10.1071 17.2899 10C17.2899 9.89293 17.2624 9.78766 17.21 9.69428C17.1576 9.60089 17.0821 9.52253 16.9908 9.4667Z" stroke="#555960" stroke-width="1.5" stroke-linecap="round" stroke-linejoin="round"/>
</svg>
