<svg width="20" height="20" viewBox="0 0 20 20" fill="none" xmlns="http://www.w3.org/2000/svg">
<path d="M5.82812 4.72656L5.73438 12.2578H4.51562L4.42188 4.72656H5.82812ZM5.125 16.0781C4.875 16.0781 4.66406 15.9922 4.49219 15.8203C4.32031 15.6484 4.23438 15.4375 4.23438 15.1875C4.23438 14.9323 4.32031 14.7214 4.49219 14.5547C4.66406 14.3828 4.875 14.2969 5.125 14.2969C5.38021 14.2969 5.59115 14.3828 5.75781 14.5547C5.92969 14.7214 6.01562 14.9323 6.01562 15.1875C6.01562 15.4375 5.92969 15.6484 5.75781 15.8203C5.59115 15.9922 5.38021 16.0781 5.125 16.0781Z" fill="#555960"/>
<path d="M10.8281 4.72656L10.7344 12.2578H9.51562L9.42188 4.72656H10.8281ZM10.125 16.0781C9.875 16.0781 9.66406 15.9922 9.49219 15.8203C9.32031 15.6484 9.23438 15.4375 9.23438 15.1875C9.23438 14.9323 9.32031 14.7214 9.49219 14.5547C9.66406 14.3828 9.875 14.2969 10.125 14.2969C10.3802 14.2969 10.5911 14.3828 10.7578 14.5547C10.9297 14.7214 11.0156 14.9323 11.0156 15.1875C11.0156 15.4375 10.9297 15.6484 10.7578 15.8203C10.5911 15.9922 10.3802 16.0781 10.125 16.0781Z" fill="#555960"/>
<path d="M15.8281 4.72656L15.7344 12.2578H14.5156L14.4219 4.72656H15.8281ZM15.125 16.0781C14.875 16.0781 14.6641 15.9922 14.4922 15.8203C14.3203 15.6484 14.2344 15.4375 14.2344 15.1875C14.2344 14.9323 14.3203 14.7214 14.4922 14.5547C14.6641 14.3828 14.875 14.2969 15.125 14.2969C15.3802 14.2969 15.5911 14.3828 15.7578 14.5547C15.9297 14.7214 16.0156 14.9323 16.0156 15.1875C16.0156 15.4375 15.9297 15.6484 15.7578 15.8203C15.5911 15.9922 15.3802 16.0781 15.125 16.0781Z" fill="#555960"/>
</svg>
