<svg width="24" height="24" viewBox="0 0 24 24" fill="none" xmlns="http://www.w3.org/2000/svg">
<path d="M8.25 15.75L4.5 19.5" stroke="#555960" stroke-width="1.5" stroke-linecap="round" stroke-linejoin="round"/>
<path d="M14.4696 2.78034L8.62494 8.62501C8.62494 8.62501 6.02394 7.32451 3.24381 9.56724C3.16171 9.63333 3.09444 9.71595 3.04636 9.80974C2.99828 9.90353 2.97047 10.0064 2.96474 10.1116C2.959 10.2169 2.97548 10.3221 3.01308 10.4206C3.05069 10.519 3.10859 10.6085 3.18302 10.6831L13.2983 20.7984C13.3741 20.8743 13.4653 20.9331 13.5657 20.9708C13.6661 21.0085 13.7735 21.0241 13.8805 21.0167C13.9875 21.0093 14.0917 20.9791 14.186 20.9279C14.2803 20.8768 14.3625 20.8061 14.4271 20.7204C15.214 19.6746 16.4498 17.5248 15.3749 15.375L21.2196 9.53034C21.3603 9.38969 21.4393 9.19892 21.4393 9.00001C21.4393 8.8011 21.3603 8.61033 21.2196 8.46968L15.5303 2.78034C15.3896 2.63969 15.1989 2.56067 14.9999 2.56067C14.801 2.56067 14.6103 2.63969 14.4696 2.78034V2.78034Z" stroke="#555960" stroke-width="1.5" stroke-linecap="round" stroke-linejoin="round"/>
</svg>
