<svg width="20" height="20" viewBox="0 0 20 20" fill="none" xmlns="http://www.w3.org/2000/svg">
<path d="M8.12525 3.75H4.37524C4.03007 3.75 3.75024 4.02982 3.75024 4.375V8.125C3.75024 8.47018 4.03007 8.75 4.37524 8.75H8.12525C8.47042 8.75 8.75025 8.47018 8.75025 8.125V4.375C8.75025 4.02982 8.47042 3.75 8.12525 3.75Z" stroke="#555960" stroke-width="1.5" stroke-linecap="round" stroke-linejoin="round"/>
<path d="M8.12525 11.25H4.37524C4.03007 11.25 3.75024 11.5298 3.75024 11.875V15.625C3.75024 15.9702 4.03007 16.25 4.37524 16.25H8.12525C8.47042 16.25 8.75025 15.9702 8.75025 15.625V11.875C8.75025 11.5298 8.47042 11.25 8.12525 11.25Z" stroke="#555960" stroke-width="1.5" stroke-linecap="round" stroke-linejoin="round"/>
<path d="M15.6252 3.75H11.8752C11.5301 3.75 11.2502 4.02982 11.2502 4.375V8.125C11.2502 8.47018 11.5301 8.75 11.8752 8.75H15.6252C15.9704 8.75 16.2502 8.47018 16.2502 8.125V4.375C16.2502 4.02982 15.9704 3.75 15.6252 3.75Z" stroke="#555960" stroke-width="1.5" stroke-linecap="round" stroke-linejoin="round"/>
<path d="M11.2502 11.25V13.75" stroke="#555960" stroke-width="1.5" stroke-linecap="round" stroke-linejoin="round"/>
<path d="M11.2501 16.25H13.7501V11.25" stroke="#555960" stroke-width="1.5" stroke-linecap="round" stroke-linejoin="round"/>
<path d="M13.7502 12.5H16.2502" stroke="#555960" stroke-width="1.5" stroke-linecap="round" stroke-linejoin="round"/>
<path d="M16.2502 15V16.25" stroke="#555960" stroke-width="1.5" stroke-linecap="round" stroke-linejoin="round"/>
</svg>
