<svg width="20" height="20" viewBox="0 0 20 20" fill="none" xmlns="http://www.w3.org/2000/svg">
<path d="M6.23694 7.79031H2.48694V4.04031" stroke="#555960" stroke-width="1.5" stroke-linecap="round" stroke-linejoin="round"/>
<path d="M14.8614 5.13864C14.223 4.50024 13.4651 3.99383 12.631 3.64833C11.7968 3.30283 10.9028 3.125 10 3.125C9.09717 3.125 8.20317 3.30283 7.36906 3.64833C6.53495 3.99383 5.77705 4.50024 5.13865 5.13864L2.487 7.79029" stroke="#555960" stroke-width="1.5" stroke-linecap="round" stroke-linejoin="round"/>
<path d="M13.7631 12.2097H17.5131V15.9597" stroke="#555960" stroke-width="1.5" stroke-linecap="round" stroke-linejoin="round"/>
<path d="M5.13867 14.8614C5.77707 15.4998 6.53497 16.0062 7.36908 16.3517C8.2032 16.6972 9.09719 16.875 10 16.875C10.9029 16.875 11.7969 16.6972 12.631 16.3517C13.4651 16.0062 14.223 15.4998 14.8614 14.8614L17.513 12.2097" stroke="#555960" stroke-width="1.5" stroke-linecap="round" stroke-linejoin="round"/>
</svg>
