<svg width="20" height="20" viewBox="0 0 20 20" fill="none" xmlns="http://www.w3.org/2000/svg">
<path d="M17.0789 3.71598L12.5003 16.9428C12.4572 17.0674 12.3758 17.1751 12.2678 17.2506C12.1598 17.3261 12.0306 17.3656 11.8989 17.3633C11.7671 17.361 11.6394 17.3171 11.5341 17.2379C11.4287 17.1586 11.3511 17.0481 11.3124 16.9222L9.47208 10.9413C9.4421 10.8438 9.38874 10.7552 9.31666 10.6831C9.24457 10.611 9.15595 10.5577 9.05852 10.5277L3.0776 8.68742C2.95163 8.64865 2.84113 8.57106 2.76191 8.46572C2.68268 8.36038 2.63879 8.2327 2.6365 8.10091C2.63421 7.96913 2.67364 7.83999 2.74916 7.73197C2.82468 7.62394 2.93241 7.54255 3.05696 7.49944L16.2838 2.92092C16.3946 2.88255 16.514 2.87615 16.6283 2.90244C16.7426 2.92873 16.8472 2.98666 16.9302 3.06959C17.0131 3.15253 17.071 3.25713 17.0973 3.37144C17.1236 3.48574 17.1172 3.60514 17.0789 3.71598V3.71598Z" stroke="#555960" stroke-width="1.5" stroke-linecap="round" stroke-linejoin="round"/>
</svg>
