<svg width="20" height="20" viewBox="0 0 20 20" fill="none" xmlns="http://www.w3.org/2000/svg">
<path d="M9.58325 2.02184L3.28212 3.28207L2.02189 9.5832C2.00171 9.68409 2.00675 9.78841 2.03657 9.88689C2.06639 9.98537 2.12006 10.075 2.19281 10.1477L10.3532 18.3081C10.4112 18.3661 10.4801 18.4122 10.5559 18.4436C10.6318 18.475 10.713 18.4911 10.7951 18.4911C10.8772 18.4911 10.9585 18.475 11.0343 18.4436C11.1101 18.4122 11.179 18.3661 11.2371 18.3081L18.3081 11.237C18.3662 11.179 18.4122 11.1101 18.4436 11.0343C18.475 10.9584 18.4912 10.8772 18.4912 10.7951C18.4912 10.713 18.475 10.6317 18.4436 10.5559C18.4122 10.4801 18.3662 10.4112 18.3081 10.3531L10.1478 2.19276C10.075 2.12001 9.98541 2.06634 9.88694 2.03652C9.78846 2.00671 9.68414 2.00166 9.58325 2.02184V2.02184Z" stroke="#555960" stroke-width="1.5" stroke-linecap="round" stroke-linejoin="round"/>
<path d="M6.5625 7.8125C7.25286 7.8125 7.8125 7.25286 7.8125 6.5625C7.8125 5.87214 7.25286 5.3125 6.5625 5.3125C5.87214 5.3125 5.3125 5.87214 5.3125 6.5625C5.3125 7.25286 5.87214 7.8125 6.5625 7.8125Z" fill="#555960"/>
</svg>
