<svg width="20" height="20" viewBox="0 0 20 20" fill="none" xmlns="http://www.w3.org/2000/svg">
<g clip-path="url(#clip0)">
<path fill-rule="evenodd" clip-rule="evenodd" d="M2.88889 -0.111115C1.2934 -0.111115 0 1.18229 0 2.77777V5.38891L4.27643 7.85608C4.31153 7.87633 4.35487 7.87587 4.38952 7.85487L11.6952 3.42932C11.7352 3.40507 11.7862 3.40851 11.8226 3.43792L12.8755 4.28832C12.9358 4.33702 12.9289 4.43094 12.8622 4.4704L4.3892 9.48088C4.35468 9.50129 4.31185 9.50152 4.27712 9.48148L0 7.01391V8.84807L4.27731 11.2654C4.31196 11.285 4.35444 11.2845 4.38868 11.2642L11.6962 6.92789C11.7358 6.9044 11.7857 6.90775 11.8218 6.93631L12.8719 7.7671C12.9334 7.81575 12.9265 7.91108 12.8586 7.95038L4.38835 12.857C4.35426 12.8768 4.31228 12.877 4.27798 12.8576L0 10.4399V12.2639L4.27643 14.7311C4.31153 14.7513 4.35487 14.7509 4.38952 14.7299L11.6952 10.3043C11.7352 10.2801 11.7862 10.2835 11.8226 10.3129L12.8755 11.1633C12.9358 11.212 12.9289 11.3059 12.8622 11.3454L4.3892 16.3559C4.35468 16.3763 4.31185 16.3765 4.27712 16.3565L0 13.8889V17C0 18.5955 1.2934 19.8889 2.88889 19.8889H17.1111C18.7066 19.8889 20 18.5955 20 17V2.77777C20 1.18229 18.7066 -0.111115 17.1111 -0.111115H2.88889Z" fill="#EE281A"/>
</g>
<defs>
<clipPath id="clip0">
<rect width="20" height="20" fill="white"/>
</clipPath>
</defs>
</svg>
