<svg width="20" height="20" viewBox="0 0 20 20" fill="none" xmlns="http://www.w3.org/2000/svg">
<path d="M13.75 4.375H17.5" stroke="#555960" stroke-width="1.5" stroke-linecap="round" stroke-linejoin="round"/>
<path d="M15.625 2.5V6.25" stroke="#555960" stroke-width="1.5" stroke-linecap="round" stroke-linejoin="round"/>
<path d="M2.42102 16.8743C3.18943 15.5442 4.29431 14.4398 5.62468 13.672C6.95505 12.9042 8.46405 12.5 10.0001 12.5C11.5361 12.5 13.0451 12.9043 14.3755 13.6721C15.7058 14.44 16.8107 15.5444 17.5791 16.8744" stroke="#555960" stroke-width="1.5" stroke-linecap="round" stroke-linejoin="round"/>
<path d="M14.6915 9.23303C14.3573 10.1354 13.7696 10.9221 12.9991 11.4987C12.2286 12.0752 11.3081 12.417 10.348 12.483C9.38797 12.549 8.42929 12.3364 7.58713 11.8708C6.74498 11.4052 6.05517 10.7063 5.60058 9.85813C5.14599 9.00997 4.94595 8.04859 5.02449 7.0895C5.10303 6.1304 5.45682 5.21438 6.04334 4.45148C6.62987 3.68857 7.42419 3.11124 8.33088 2.78883C9.23757 2.46642 10.2181 2.41265 11.1546 2.63397" stroke="#555960" stroke-width="1.5" stroke-linecap="round" stroke-linejoin="round"/>
</svg>
