<svg width="40" height="40" viewBox="0 0 40 40" fill="none" xmlns="http://www.w3.org/2000/svg">
<circle cx="20" cy="20" r="20" fill="#5181B8"/>
<path d="M29.8065 25.1149C29.8065 25.0319 29.7235 25.0319 29.7235 24.9488C29.3914 24.2847 28.6442 23.4544 27.6479 22.5412C27.1498 22.1261 26.9007 21.794 26.7346 21.6279C26.4856 21.2958 26.4856 21.0468 26.5686 20.7147C26.6516 20.4656 26.9837 20.0505 27.5649 19.3033C27.897 18.8882 28.063 18.6391 28.3121 18.39C29.5574 16.7296 30.1386 15.6503 29.9725 15.1521L29.8895 15.0691C29.8065 14.9861 29.7235 14.9031 29.5574 14.9031C29.3914 14.8201 29.1423 14.8201 28.8932 14.9031H25.7384C25.6554 14.9031 25.6553 14.9031 25.4893 14.9031C25.4063 14.9031 25.3233 14.9031 25.3233 14.9031H25.2402H25.1572L25.0742 14.9861C24.9912 15.0691 24.9912 15.0691 24.9912 15.1521C24.6591 16.0654 24.244 16.8126 23.8288 17.6428C23.5798 18.0579 23.3307 18.4731 23.0816 18.8052C22.8326 19.1372 22.6665 19.3863 22.5005 19.5524C22.3344 19.7184 22.1684 19.8014 22.0854 19.9675C22.0023 20.0505 21.8363 20.1335 21.8363 20.0505C21.7533 20.0505 21.6702 20.0505 21.6702 19.9675C21.5872 19.8844 21.5042 19.8014 21.4212 19.7184C21.3382 19.6354 21.3382 19.4693 21.2551 19.3033C21.2551 19.1372 21.2551 18.9712 21.2551 18.8882C21.2551 18.8051 21.2551 18.5561 21.2551 18.39C21.2551 18.141 21.2551 17.9749 21.2551 17.8919C21.2551 17.6428 21.2551 17.3107 21.2551 16.9787C21.2551 16.6466 21.2551 16.3975 21.2551 16.2314C21.2551 16.0654 21.2551 15.8163 21.2551 15.6503C21.2551 15.4012 21.2551 15.2352 21.2551 15.1521C21.2551 15.0691 21.1721 14.9031 21.1721 14.82C21.0891 14.737 21.0061 14.654 20.923 14.571C20.84 14.488 20.674 14.488 20.591 14.4049C20.1758 14.3219 19.6777 14.2389 19.0966 14.2389C17.7682 14.2389 16.8549 14.3219 16.5228 14.488C16.3568 14.571 16.1907 14.654 16.1077 14.82C15.9417 14.9861 15.9417 15.0691 16.0247 15.0691C16.4398 15.1521 16.7719 15.3182 16.938 15.5673L17.021 15.7333C17.104 15.8163 17.104 15.9824 17.187 16.2314C17.27 16.4805 17.27 16.7296 17.27 17.0617C17.27 17.5598 17.27 18.0579 17.27 18.39C17.27 18.8052 17.187 19.0542 17.187 19.3033C17.187 19.5524 17.104 19.7184 17.021 19.8014C16.938 19.9675 16.9379 20.0505 16.8549 20.0505C16.8549 20.0505 16.8549 20.1335 16.7719 20.1335C16.6889 20.1335 16.6059 20.2165 16.4398 20.2165C16.3568 20.2165 16.1907 20.1335 16.1077 20.0505C15.9417 19.9675 15.7756 19.8014 15.6926 19.6354C15.5266 19.4693 15.3605 19.2203 15.1945 18.8882C15.0284 18.5561 14.7793 18.224 14.6133 17.7259L14.4473 17.3938C14.3642 17.2277 14.1982 16.8956 14.0321 16.4805C13.8661 16.0654 13.7001 15.7333 13.534 15.3182C13.451 15.1521 13.368 15.0691 13.2849 14.9861H13.2019C13.2019 14.9861 13.1189 14.9031 13.0359 14.9031C12.9528 14.9031 12.8698 14.82 12.7868 14.82H9.79798C9.46588 14.82 9.29984 14.9031 9.21682 14.9861L9.13379 15.0691C9.13379 15.0691 9.13379 15.1521 9.13379 15.2352C9.13379 15.3182 9.13379 15.4012 9.21682 15.5673C9.63193 16.5635 10.1301 17.5598 10.6282 18.5561C11.1263 19.4693 11.6245 20.2996 11.9566 20.8807C12.3717 21.4619 12.7038 22.043 13.1189 22.5412C13.534 23.0393 13.7831 23.3714 13.8661 23.5375C14.0321 23.7035 14.1152 23.7865 14.1982 23.8695L14.4473 24.1186C14.6133 24.2847 14.8624 24.5337 15.1945 24.7828C15.5266 25.0319 15.9417 25.2809 16.3568 25.53C16.7719 25.7791 17.27 25.9451 17.7682 26.1112C18.3493 26.2772 18.8475 26.3602 19.3456 26.2772H20.591C20.84 26.2772 21.0061 26.1942 21.1721 26.0281L21.2551 25.9451C21.2551 25.8621 21.3382 25.8621 21.3382 25.7791C21.3382 25.6961 21.3382 25.613 21.3382 25.447C21.3382 25.1149 21.3382 24.8658 21.4212 24.6168C21.5042 24.3677 21.5042 24.2016 21.5872 24.0356C21.6703 23.8696 21.7533 23.7865 21.8363 23.7035C21.9193 23.6205 22.0024 23.5375 22.0024 23.5375H22.0854C22.2514 23.4544 22.5005 23.5375 22.6665 23.7035C22.9156 23.8695 23.1647 24.1186 23.3307 24.3677C23.4967 24.6168 23.7458 24.8658 24.0779 25.1979C24.41 25.53 24.6591 25.7791 24.8251 25.8621L25.0742 26.0281C25.2402 26.1112 25.4063 26.1942 25.6554 26.2772C25.9044 26.3602 26.0705 26.3602 26.2365 26.3602L29.0593 26.2772C29.3084 26.2772 29.5574 26.1942 29.7235 26.1112C29.8895 26.0281 29.9725 25.9451 29.9725 25.7791C29.9725 25.6961 29.9725 25.53 29.9725 25.447C29.8065 25.2809 29.8065 25.1979 29.8065 25.1149Z" fill="white"/>
</svg>
