<svg width="40" height="40" viewBox="0 0 40 40" fill="none" xmlns="http://www.w3.org/2000/svg">
<path d="M40 20C40 31.0457 31.0457 40 20 40C8.9543 40 0 31.0457 0 20C0 8.9543 8.9543 0 20 0C31.0457 0 40 8.9543 40 20Z" fill="#DF0000"/>
<path d="M22.1411 21.5314H20.9712C19.1328 21.5314 17.3501 20.343 17.3501 17.3713C17.3501 14.2763 19.0215 13.0133 20.7204 13.0133H22.1411V21.5314ZM23.9795 11.4286H20.8043C17.6839 11.4286 15.0384 13.5337 15.0384 17.6193C15.0384 20.0706 16.3196 21.8783 18.6038 22.7693L14.3417 29.6036C14.2023 29.8265 14.3417 30 14.5643 30H16.5422C16.7091 30 16.8211 29.9505 16.8768 29.8265L20.7486 23.1162H22.1411V29.8265C22.1411 29.9011 22.225 30 22.3362 30H24.0633C24.2302 30 24.2859 29.9255 24.2859 29.8022V11.6759C24.2859 11.5031 24.1746 11.4286 23.9795 11.4286Z" fill="white"/>
<path d="M23.9795 11.4286H20.8043C17.6839 11.4286 15.0384 13.5337 15.0384 17.6193C15.0384 20.0706 16.3196 21.8783 18.6038 22.7693L14.3417 29.6036C14.2023 29.8265 14.3417 30 14.5643 30H16.5422C16.7091 30 16.8211 29.9505 16.8768 29.8265L20.7486 23.1162H22.1411V29.8265C22.1411 29.9011 22.225 30 22.3362 30H24.0633C24.2302 30 24.2859 29.9255 24.2859 29.8022V11.6759C24.2859 11.5031 24.1746 11.4286 23.9795 11.4286M22.1411 21.5314H20.9712C19.1328 21.5314 17.3501 20.343 17.3501 17.3713C17.3501 14.2763 19.0215 13.0133 20.7204 13.0133H22.1411V21.5314Z" stroke="white" stroke-width="0.4"/>
</svg>
