<svg width="20" height="20" viewBox="0 0 20 20" fill="none" xmlns="http://www.w3.org/2000/svg">
<path d="M12.4999 10.0044C12.5003 10.7255 12.3702 11.4408 12.1159 12.1156C11.4408 12.3698 10.7254 12.5001 10.0041 12.5002H9.99562C9.25281 12.4993 8.54109 12.3635 7.88437 12.1159C7.62998 11.441 7.49976 10.7256 7.5 10.0044V9.99562C7.49965 9.27462 7.62961 8.55948 7.88359 7.88469C8.55864 7.63001 9.27422 7.49968 9.9957 7.5H10.0041C10.7255 7.49965 11.4411 7.62996 12.116 7.88461C12.3703 8.55934 12.5004 9.2745 12.5 9.99555V10.0043L12.4999 10.0044ZM19.8611 8.33336H14.0239L18.1512 4.20578C17.8272 3.75072 17.4659 3.32348 17.0709 2.92852V2.9282C16.6758 2.53366 16.2487 2.17263 15.7939 1.84883L11.6663 5.97641V0.139219C11.1174 0.0468694 10.5617 0.000302883 10.005 0L9.99469 0C9.42844 0.0003125 8.87383 0.0484375 8.33336 0.139219V5.97641L4.20578 1.84883C3.75089 2.17254 3.32395 2.53383 2.92945 2.92891L2.92727 2.93047C2.53293 3.32494 2.17208 3.75151 1.84844 4.20578L5.97633 8.33336H0.139219C0.139219 8.33336 0 9.42969 0 9.99656V10.0034C0 10.5703 0.0480469 11.1259 0.139219 11.6666H5.97641L1.84852 15.7942C2.49786 16.7055 3.29453 17.5021 4.20578 18.1515L8.33336 14.0236V19.8611C8.88172 19.953 9.43673 19.9994 9.99273 20H10.0069C10.5629 19.9995 11.1179 19.953 11.6663 19.8611V14.0236L15.7942 18.1515C16.2489 17.8276 16.676 17.4664 17.0709 17.0718L17.0718 17.0709C17.4663 16.6759 17.8273 16.2489 18.1512 15.7942L14.0233 11.6666H19.8611C19.952 11.1268 19.9994 10.5729 20 10.0073V9.99273C19.9994 9.42711 19.952 8.8732 19.8611 8.33336Z" fill="#FF4A00"/>
</svg>
